<svg xmlns="http://www.w3.org/2000/svg" xmlns:xlink="http://www.w3.org/1999/xlink" width="250" zoomAndPan="magnify" viewBox="0 0 187.5 93.749996" height="125" preserveAspectRatio="xMidYMid meet" version="1.0"><defs><g/><clipPath id="d3d094a68f"><path d="M 90.4375 21 L 91 21 L 91 38.671875 L 90.4375 38.671875 Z M 90.4375 21 " clip-rule="nonzero"/></clipPath><clipPath id="96dcacbc2e"><path d="M 90.4375 2.765625 L 130.832031 2.765625 L 130.832031 38.671875 L 90.4375 38.671875 Z M 90.4375 2.765625 " clip-rule="nonzero"/></clipPath><clipPath id="48a21228a1"><path d="M 49.71875 21 L 90.109375 21 L 90.109375 56.808594 L 49.71875 56.808594 Z M 49.71875 21 " clip-rule="nonzero"/></clipPath><clipPath id="c96e1412de"><path d="M 90 20.90625 L 90.109375 20.90625 L 90.109375 39 L 90 39 Z M 90 20.90625 " clip-rule="nonzero"/></clipPath></defs><g clip-path="url(#d3d094a68f)"><path fill="#0652e9" d="M 77.015625 46.980469 L 77.015625 51.929688 L 54.59375 41.515625 L 54.59375 37.496094 L 77.015625 27.082031 L 77.015625 32.035156 L 60.058594 39.460938 L 60.058594 39.554688 Z M 90.332031 21.582031 L 52.835938 21.582031 C 51.066406 21.582031 49.632812 23.015625 49.632812 24.785156 L 49.632812 54.226562 C 49.632812 55.996094 51.066406 57.433594 52.835938 57.433594 L 79.921875 57.433594 L 90.332031 21.582031 " fill-opacity="1" fill-rule="nonzero"/></g><g clip-path="url(#96dcacbc2e)"><path fill="#0f1120" d="M 126.003906 22.855469 L 103.585938 33.128906 L 103.585938 28.179688 L 120.914062 20.753906 L 120.914062 20.660156 L 103.585938 13.230469 L 103.585938 8.28125 L 126.003906 18.558594 Z M 100.738281 2.78125 L 90.332031 38.632812 L 127.761719 38.632812 C 129.535156 38.632812 130.96875 37.195312 130.96875 35.425781 L 130.96875 5.984375 C 130.96875 4.214844 129.535156 2.78125 127.761719 2.78125 L 100.738281 2.78125 " fill-opacity="1" fill-rule="nonzero"/></g><g fill="#000000" fill-opacity="1"><g transform="translate(26.135056, 76.837954)"><g><path d="M 14.546875 -12.53125 L 17.453125 -12.53125 L 14.03125 0 L 10.859375 0 L 8.578125 -8.8125 L 6.3125 0 L 3.125 0 L -0.296875 -12.53125 L 2.609375 -12.53125 L 4.859375 -3.796875 L 7.25 -12.53125 L 9.921875 -12.53125 L 12.3125 -3.84375 Z M 14.546875 -12.53125 "/></g></g></g><g fill="#000000" fill-opacity="1"><g transform="translate(44.02502, 76.837954)"><g><path d="M 8.875 -10.109375 L 4.09375 -10.109375 L 4.09375 -7.46875 L 8.1875 -7.46875 L 8.1875 -5.046875 L 4.09375 -5.046875 L 4.09375 -2.421875 L 8.875 -2.421875 L 8.875 0 L 1.34375 0 L 1.34375 -12.53125 L 8.875 -12.53125 Z M 8.875 -10.109375 "/></g></g></g><g fill="#000000" fill-opacity="1"><g transform="translate(54.485229, 76.837954)"><g><path d="M 10.234375 -12.53125 L 12.96875 -12.53125 L 12.96875 0 L 10.125 0 L 3.984375 -8.3125 L 3.984375 0 L 1.234375 0 L 1.234375 -12.53125 L 4.078125 -12.53125 L 10.234375 -4.234375 Z M 10.234375 -12.53125 "/></g></g></g><g fill="#000000" fill-opacity="1"><g transform="translate(69.432507, 76.837954)"><g><path d="M 1.234375 0 L 1.234375 -12.53125 L 5.359375 -12.53125 C 6.222656 -12.53125 7.035156 -12.363281 7.796875 -12.03125 C 8.554688 -11.707031 9.21875 -11.257812 9.78125 -10.6875 C 10.351562 -10.113281 10.800781 -9.445312 11.125 -8.6875 C 11.457031 -7.9375 11.625 -7.128906 11.625 -6.265625 C 11.625 -5.398438 11.457031 -4.585938 11.125 -3.828125 C 10.800781 -3.066406 10.351562 -2.398438 9.78125 -1.828125 C 9.21875 -1.265625 8.554688 -0.816406 7.796875 -0.484375 C 7.035156 -0.160156 6.222656 0 5.359375 0 Z M 3.984375 -2.4375 L 5.34375 -2.4375 C 6.007812 -2.4375 6.609375 -2.601562 7.140625 -2.9375 C 7.671875 -3.269531 8.09375 -3.722656 8.40625 -4.296875 C 8.71875 -4.878906 8.875 -5.535156 8.875 -6.265625 C 8.875 -6.984375 8.71875 -7.628906 8.40625 -8.203125 C 8.09375 -8.785156 7.671875 -9.242188 7.140625 -9.578125 C 6.609375 -9.910156 6.007812 -10.078125 5.34375 -10.078125 L 3.984375 -10.078125 Z M 3.984375 -2.4375 "/></g></g></g><g fill="#000000" fill-opacity="1"><g transform="translate(82.56409, 76.837954)"><g><path d="M 3.984375 -2.4375 L 8.140625 -2.4375 L 8.140625 0 L 1.234375 0 L 1.234375 -12.53125 L 3.984375 -12.53125 Z M 3.984375 -2.4375 "/></g></g></g><g fill="#000000" fill-opacity="1"><g transform="translate(91.479908, 76.837954)"><g><path d="M 8.875 -10.109375 L 4.09375 -10.109375 L 4.09375 -7.46875 L 8.1875 -7.46875 L 8.1875 -5.046875 L 4.09375 -5.046875 L 4.09375 -2.421875 L 8.875 -2.421875 L 8.875 0 L 1.34375 0 L 1.34375 -12.53125 L 8.875 -12.53125 Z M 8.875 -10.109375 "/></g></g></g><g fill="#000000" fill-opacity="1"><g transform="translate(101.940118, 76.837954)"><g><path d="M 7.765625 -5.15625 L 11.28125 0 L 8.1875 0 L 5.09375 -4.84375 L 3.984375 -4.84375 L 3.984375 0 L 1.234375 0 L 1.234375 -12.53125 L 6.5625 -12.53125 C 7.28125 -12.53125 7.914062 -12.359375 8.46875 -12.015625 C 9.03125 -11.671875 9.472656 -11.207031 9.796875 -10.625 C 10.128906 -10.039062 10.296875 -9.394531 10.296875 -8.6875 C 10.296875 -7.832031 10.054688 -7.082031 9.578125 -6.4375 C 9.109375 -5.800781 8.503906 -5.375 7.765625 -5.15625 Z M 6.140625 -7.125 C 6.585938 -7.125 6.953125 -7.257812 7.234375 -7.53125 C 7.515625 -7.8125 7.65625 -8.171875 7.65625 -8.609375 C 7.65625 -9.035156 7.515625 -9.382812 7.234375 -9.65625 C 6.953125 -9.9375 6.585938 -10.078125 6.140625 -10.078125 L 3.984375 -10.078125 L 3.984375 -7.125 Z M 6.140625 -7.125 "/></g></g></g><g fill="#000000" fill-opacity="1"><g transform="translate(113.840361, 76.837954)"><g/></g></g><g fill="#000000" fill-opacity="1"><g transform="translate(119.583923, 76.837954)"><g><path d="M 1.234375 0 L 1.234375 -12.53125 L 5.359375 -12.53125 C 6.222656 -12.53125 7.035156 -12.363281 7.796875 -12.03125 C 8.554688 -11.707031 9.21875 -11.257812 9.78125 -10.6875 C 10.351562 -10.113281 10.800781 -9.445312 11.125 -8.6875 C 11.457031 -7.9375 11.625 -7.128906 11.625 -6.265625 C 11.625 -5.398438 11.457031 -4.585938 11.125 -3.828125 C 10.800781 -3.066406 10.351562 -2.398438 9.78125 -1.828125 C 9.21875 -1.265625 8.554688 -0.816406 7.796875 -0.484375 C 7.035156 -0.160156 6.222656 0 5.359375 0 Z M 3.984375 -2.4375 L 5.34375 -2.4375 C 6.007812 -2.4375 6.609375 -2.601562 7.140625 -2.9375 C 7.671875 -3.269531 8.09375 -3.722656 8.40625 -4.296875 C 8.71875 -4.878906 8.875 -5.535156 8.875 -6.265625 C 8.875 -6.984375 8.71875 -7.628906 8.40625 -8.203125 C 8.09375 -8.785156 7.671875 -9.242188 7.140625 -9.578125 C 6.609375 -9.910156 6.007812 -10.078125 5.34375 -10.078125 L 3.984375 -10.078125 Z M 3.984375 -2.4375 "/></g></g></g><g fill="#000000" fill-opacity="1"><g transform="translate(132.715506, 76.837954)"><g><path d="M 8.875 -10.109375 L 4.09375 -10.109375 L 4.09375 -7.46875 L 8.1875 -7.46875 L 8.1875 -5.046875 L 4.09375 -5.046875 L 4.09375 -2.421875 L 8.875 -2.421875 L 8.875 0 L 1.34375 0 L 1.34375 -12.53125 L 8.875 -12.53125 Z M 8.875 -10.109375 "/></g></g></g><g fill="#000000" fill-opacity="1"><g transform="translate(143.175716, 76.837954)"><g><path d="M 8.765625 -12.53125 L 11.84375 -12.53125 L 7.328125 0 L 4.234375 0 L -0.265625 -12.53125 L 2.796875 -12.53125 L 5.78125 -3.5625 Z M 8.765625 -12.53125 "/></g></g></g><g fill="#000000" fill-opacity="1"><g transform="translate(29.529341, 88.765351)"><g><path d="M 2 0.078125 C 1.601562 0.078125 1.25 -0.0195312 0.9375 -0.21875 C 0.625 -0.425781 0.398438 -0.691406 0.265625 -1.015625 L 0.78125 -1.328125 C 0.875 -1.078125 1.023438 -0.875 1.234375 -0.71875 C 1.453125 -0.570312 1.710938 -0.5 2.015625 -0.5 C 2.304688 -0.5 2.554688 -0.578125 2.765625 -0.734375 C 2.984375 -0.890625 3.09375 -1.109375 3.09375 -1.390625 C 3.09375 -1.609375 3.023438 -1.785156 2.890625 -1.921875 C 2.765625 -2.066406 2.601562 -2.1875 2.40625 -2.28125 C 2.207031 -2.382812 2 -2.476562 1.78125 -2.5625 C 1.5625 -2.644531 1.347656 -2.742188 1.140625 -2.859375 C 0.941406 -2.984375 0.78125 -3.132812 0.65625 -3.3125 C 0.53125 -3.5 0.46875 -3.738281 0.46875 -4.03125 C 0.46875 -4.320312 0.535156 -4.570312 0.671875 -4.78125 C 0.804688 -4.988281 0.988281 -5.148438 1.21875 -5.265625 C 1.445312 -5.378906 1.695312 -5.4375 1.96875 -5.4375 C 2.28125 -5.4375 2.554688 -5.367188 2.796875 -5.234375 C 3.046875 -5.109375 3.25 -4.953125 3.40625 -4.765625 L 2.953125 -4.390625 C 2.734375 -4.703125 2.410156 -4.859375 1.984375 -4.859375 C 1.734375 -4.859375 1.515625 -4.789062 1.328125 -4.65625 C 1.140625 -4.53125 1.046875 -4.332031 1.046875 -4.0625 C 1.046875 -3.851562 1.109375 -3.679688 1.234375 -3.546875 C 1.359375 -3.421875 1.519531 -3.3125 1.71875 -3.21875 C 1.914062 -3.125 2.125 -3.03125 2.34375 -2.9375 C 2.570312 -2.851562 2.785156 -2.75 2.984375 -2.625 C 3.179688 -2.507812 3.34375 -2.351562 3.46875 -2.15625 C 3.59375 -1.96875 3.65625 -1.71875 3.65625 -1.40625 C 3.65625 -1.101562 3.582031 -0.835938 3.4375 -0.609375 C 3.289062 -0.390625 3.085938 -0.21875 2.828125 -0.09375 C 2.578125 0.0195312 2.300781 0.078125 2 0.078125 Z M 2 0.078125 "/></g></g></g><g fill="#000000" fill-opacity="1"><g transform="translate(35.844958, 88.765351)"><g><path d="M 3.1875 0.078125 C 2.8125 0.078125 2.457031 0.00390625 2.125 -0.140625 C 1.789062 -0.285156 1.5 -0.484375 1.25 -0.734375 C 1 -0.992188 0.800781 -1.285156 0.65625 -1.609375 C 0.507812 -1.941406 0.4375 -2.300781 0.4375 -2.6875 C 0.4375 -3.0625 0.507812 -3.414062 0.65625 -3.75 C 0.800781 -4.082031 1 -4.375 1.25 -4.625 C 1.5 -4.882812 1.789062 -5.082031 2.125 -5.21875 C 2.457031 -5.363281 2.8125 -5.4375 3.1875 -5.4375 C 3.570312 -5.4375 3.929688 -5.363281 4.265625 -5.21875 C 4.597656 -5.082031 4.890625 -4.882812 5.140625 -4.625 C 5.390625 -4.375 5.585938 -4.082031 5.734375 -3.75 C 5.878906 -3.414062 5.953125 -3.0625 5.953125 -2.6875 C 5.953125 -2.300781 5.878906 -1.941406 5.734375 -1.609375 C 5.585938 -1.285156 5.390625 -0.992188 5.140625 -0.734375 C 4.890625 -0.484375 4.597656 -0.285156 4.265625 -0.140625 C 3.929688 0.00390625 3.570312 0.078125 3.1875 0.078125 Z M 3.1875 -0.5 C 3.59375 -0.5 3.960938 -0.59375 4.296875 -0.78125 C 4.628906 -0.976562 4.890625 -1.242188 5.078125 -1.578125 C 5.273438 -1.910156 5.375 -2.28125 5.375 -2.6875 C 5.375 -3.09375 5.273438 -3.457031 5.078125 -3.78125 C 4.890625 -4.113281 4.628906 -4.375 4.296875 -4.5625 C 3.960938 -4.757812 3.59375 -4.859375 3.1875 -4.859375 C 2.789062 -4.859375 2.425781 -4.757812 2.09375 -4.5625 C 1.757812 -4.375 1.492188 -4.113281 1.296875 -3.78125 C 1.109375 -3.457031 1.015625 -3.09375 1.015625 -2.6875 C 1.015625 -2.28125 1.109375 -1.910156 1.296875 -1.578125 C 1.492188 -1.242188 1.757812 -0.976562 2.09375 -0.78125 C 2.425781 -0.59375 2.789062 -0.5 3.1875 -0.5 Z M 3.1875 -0.5 "/></g></g></g><g fill="#000000" fill-opacity="1"><g transform="translate(44.638496, 88.765351)"><g><path d="M 3.625 -4.8125 L 1.265625 -4.8125 L 1.265625 -2.953125 L 3.328125 -2.953125 L 3.328125 -2.40625 L 1.265625 -2.40625 L 1.265625 0 L 0.703125 0 L 0.703125 -5.359375 L 3.625 -5.359375 Z M 3.625 -4.8125 "/></g></g></g><g fill="#000000" fill-opacity="1"><g transform="translate(50.828876, 88.765351)"><g><path d="M 3.625 -5.359375 L 3.625 -4.796875 L 2.140625 -4.796875 L 2.140625 0 L 1.5625 0 L 1.5625 -4.796875 L 0.078125 -4.796875 L 0.078125 -5.359375 Z M 3.625 -5.359375 "/></g></g></g><g fill="#000000" fill-opacity="1"><g transform="translate(56.929801, 88.765351)"><g><path d="M 6.703125 -5.359375 L 7.296875 -5.359375 L 5.625 0 L 5.015625 0 L 3.609375 -4.765625 L 2.234375 0 L 1.625 0 L -0.046875 -5.359375 L 0.546875 -5.359375 L 1.921875 -0.96875 L 3.21875 -5.359375 L 4.015625 -5.359375 L 5.328125 -0.953125 Z M 6.703125 -5.359375 "/></g></g></g><g fill="#000000" fill-opacity="1"><g transform="translate(66.564219, 88.765351)"><g><path d="M 3.890625 0 L 3.453125 -1.25 L 1.0625 -1.25 L 0.625 0 L 0 0 L 1.9375 -5.359375 L 2.578125 -5.359375 L 4.515625 0 Z M 1.25 -1.796875 L 3.265625 -1.796875 L 2.265625 -4.6875 Z M 1.25 -1.796875 "/></g></g></g><g fill="#000000" fill-opacity="1"><g transform="translate(73.479188, 88.765351)"><g><path d="M 2.828125 -2.453125 L 4.40625 0 L 3.75 0 L 2.234375 -2.421875 L 1.21875 -2.421875 L 1.21875 0 L 0.65625 0 L 0.65625 -5.359375 L 2.578125 -5.359375 C 2.847656 -5.359375 3.097656 -5.289062 3.328125 -5.15625 C 3.554688 -5.03125 3.734375 -4.851562 3.859375 -4.625 C 3.992188 -4.394531 4.0625 -4.140625 4.0625 -3.859375 C 4.0625 -3.617188 4.003906 -3.394531 3.890625 -3.1875 C 3.785156 -2.988281 3.640625 -2.820312 3.453125 -2.6875 C 3.273438 -2.5625 3.066406 -2.484375 2.828125 -2.453125 Z M 1.21875 -2.96875 L 2.546875 -2.96875 C 2.816406 -2.96875 3.039062 -3.050781 3.21875 -3.21875 C 3.40625 -3.382812 3.5 -3.601562 3.5 -3.875 C 3.5 -4.144531 3.40625 -4.363281 3.21875 -4.53125 C 3.03125 -4.707031 2.804688 -4.796875 2.546875 -4.796875 L 1.21875 -4.796875 Z M 1.21875 -2.96875 "/></g></g></g><g fill="#000000" fill-opacity="1"><g transform="translate(80.367321, 88.765351)"><g><path d="M 3.625 -4.8125 L 1.265625 -4.8125 L 1.265625 -2.953125 L 3.328125 -2.953125 L 3.328125 -2.40625 L 1.265625 -2.40625 L 1.265625 -0.546875 L 3.625 -0.546875 L 3.625 0 L 0.703125 0 L 0.703125 -5.359375 L 3.625 -5.359375 Z M 3.625 -4.8125 "/></g></g></g><g fill="#000000" fill-opacity="1"><g transform="translate(86.933413, 88.765351)"><g/></g></g><g fill="#000000" fill-opacity="1"><g transform="translate(91.486748, 88.765351)"><g><path d="M 0.65625 0 L 0.65625 -5.359375 L 2.125 -5.359375 C 2.488281 -5.359375 2.832031 -5.289062 3.15625 -5.15625 C 3.488281 -5.019531 3.773438 -4.828125 4.015625 -4.578125 C 4.265625 -4.335938 4.457031 -4.050781 4.59375 -3.71875 C 4.726562 -3.394531 4.796875 -3.050781 4.796875 -2.6875 C 4.796875 -2.3125 4.726562 -1.960938 4.59375 -1.640625 C 4.457031 -1.316406 4.265625 -1.03125 4.015625 -0.78125 C 3.773438 -0.539062 3.488281 -0.347656 3.15625 -0.203125 C 2.832031 -0.0664062 2.488281 0 2.125 0 Z M 1.21875 -0.578125 L 2.109375 -0.578125 C 2.503906 -0.578125 2.863281 -0.664062 3.1875 -0.84375 C 3.507812 -1.03125 3.765625 -1.28125 3.953125 -1.59375 C 4.140625 -1.914062 4.234375 -2.28125 4.234375 -2.6875 C 4.234375 -3.09375 4.140625 -3.453125 3.953125 -3.765625 C 3.765625 -4.078125 3.507812 -4.328125 3.1875 -4.515625 C 2.863281 -4.703125 2.503906 -4.796875 2.109375 -4.796875 L 1.21875 -4.796875 Z M 1.21875 -0.578125 "/></g></g></g><g fill="#000000" fill-opacity="1"><g transform="translate(99.126303, 88.765351)"><g><path d="M 3.625 -4.8125 L 1.265625 -4.8125 L 1.265625 -2.953125 L 3.328125 -2.953125 L 3.328125 -2.40625 L 1.265625 -2.40625 L 1.265625 -0.546875 L 3.625 -0.546875 L 3.625 0 L 0.703125 0 L 0.703125 -5.359375 L 3.625 -5.359375 Z M 3.625 -4.8125 "/></g></g></g><g fill="#000000" fill-opacity="1"><g transform="translate(105.692391, 88.765351)"><g><path d="M 3.890625 -5.359375 L 4.515625 -5.359375 L 2.578125 0 L 1.9375 0 L 0 -5.359375 L 0.640625 -5.359375 L 2.265625 -0.734375 Z M 3.890625 -5.359375 "/></g></g></g><g fill="#000000" fill-opacity="1"><g transform="translate(112.607357, 88.765351)"><g><path d="M 3.625 -4.8125 L 1.265625 -4.8125 L 1.265625 -2.953125 L 3.328125 -2.953125 L 3.328125 -2.40625 L 1.265625 -2.40625 L 1.265625 -0.546875 L 3.625 -0.546875 L 3.625 0 L 0.703125 0 L 0.703125 -5.359375 L 3.625 -5.359375 Z M 3.625 -4.8125 "/></g></g></g><g fill="#000000" fill-opacity="1"><g transform="translate(119.173446, 88.765351)"><g><path d="M 1.21875 -0.578125 L 3.21875 -0.578125 L 3.21875 0 L 0.65625 0 L 0.65625 -5.359375 L 1.21875 -5.359375 Z M 1.21875 -0.578125 "/></g></g></g><g fill="#000000" fill-opacity="1"><g transform="translate(124.871813, 88.765351)"><g><path d="M 3.1875 0.078125 C 2.8125 0.078125 2.457031 0.00390625 2.125 -0.140625 C 1.789062 -0.285156 1.5 -0.484375 1.25 -0.734375 C 1 -0.992188 0.800781 -1.285156 0.65625 -1.609375 C 0.507812 -1.941406 0.4375 -2.300781 0.4375 -2.6875 C 0.4375 -3.0625 0.507812 -3.414062 0.65625 -3.75 C 0.800781 -4.082031 1 -4.375 1.25 -4.625 C 1.5 -4.882812 1.789062 -5.082031 2.125 -5.21875 C 2.457031 -5.363281 2.8125 -5.4375 3.1875 -5.4375 C 3.570312 -5.4375 3.929688 -5.363281 4.265625 -5.21875 C 4.597656 -5.082031 4.890625 -4.882812 5.140625 -4.625 C 5.390625 -4.375 5.585938 -4.082031 5.734375 -3.75 C 5.878906 -3.414062 5.953125 -3.0625 5.953125 -2.6875 C 5.953125 -2.300781 5.878906 -1.941406 5.734375 -1.609375 C 5.585938 -1.285156 5.390625 -0.992188 5.140625 -0.734375 C 4.890625 -0.484375 4.597656 -0.285156 4.265625 -0.140625 C 3.929688 0.00390625 3.570312 0.078125 3.1875 0.078125 Z M 3.1875 -0.5 C 3.59375 -0.5 3.960938 -0.59375 4.296875 -0.78125 C 4.628906 -0.976562 4.890625 -1.242188 5.078125 -1.578125 C 5.273438 -1.910156 5.375 -2.28125 5.375 -2.6875 C 5.375 -3.09375 5.273438 -3.457031 5.078125 -3.78125 C 4.890625 -4.113281 4.628906 -4.375 4.296875 -4.5625 C 3.960938 -4.757812 3.59375 -4.859375 3.1875 -4.859375 C 2.789062 -4.859375 2.425781 -4.757812 2.09375 -4.5625 C 1.757812 -4.375 1.492188 -4.113281 1.296875 -3.78125 C 1.109375 -3.457031 1.015625 -3.09375 1.015625 -2.6875 C 1.015625 -2.28125 1.109375 -1.910156 1.296875 -1.578125 C 1.492188 -1.242188 1.757812 -0.976562 2.09375 -0.78125 C 2.425781 -0.59375 2.789062 -0.5 3.1875 -0.5 Z M 3.1875 -0.5 "/></g></g></g><g fill="#000000" fill-opacity="1"><g transform="translate(133.665354, 88.765351)"><g><path d="M 2.578125 -5.359375 C 2.859375 -5.359375 3.109375 -5.289062 3.328125 -5.15625 C 3.554688 -5.03125 3.734375 -4.851562 3.859375 -4.625 C 3.992188 -4.394531 4.0625 -4.144531 4.0625 -3.875 C 4.0625 -3.601562 3.992188 -3.351562 3.859375 -3.125 C 3.734375 -2.894531 3.554688 -2.710938 3.328125 -2.578125 C 3.109375 -2.453125 2.859375 -2.390625 2.578125 -2.390625 L 1.21875 -2.390625 L 1.21875 0 L 0.65625 0 L 0.65625 -5.359375 Z M 2.515625 -2.9375 C 2.785156 -2.9375 3.015625 -3.015625 3.203125 -3.171875 C 3.398438 -3.335938 3.5 -3.566406 3.5 -3.859375 C 3.5 -4.148438 3.398438 -4.378906 3.203125 -4.546875 C 3.015625 -4.722656 2.785156 -4.8125 2.515625 -4.8125 L 1.21875 -4.8125 L 1.21875 -2.9375 Z M 2.515625 -2.9375 "/></g></g></g><g fill="#000000" fill-opacity="1"><g transform="translate(140.285114, 88.765351)"><g><path d="M 3.625 -4.8125 L 1.265625 -4.8125 L 1.265625 -2.953125 L 3.328125 -2.953125 L 3.328125 -2.40625 L 1.265625 -2.40625 L 1.265625 -0.546875 L 3.625 -0.546875 L 3.625 0 L 0.703125 0 L 0.703125 -5.359375 L 3.625 -5.359375 Z M 3.625 -4.8125 "/></g></g></g><g fill="#000000" fill-opacity="1"><g transform="translate(146.851203, 88.765351)"><g><path d="M 2.828125 -2.453125 L 4.40625 0 L 3.75 0 L 2.234375 -2.421875 L 1.21875 -2.421875 L 1.21875 0 L 0.65625 0 L 0.65625 -5.359375 L 2.578125 -5.359375 C 2.847656 -5.359375 3.097656 -5.289062 3.328125 -5.15625 C 3.554688 -5.03125 3.734375 -4.851562 3.859375 -4.625 C 3.992188 -4.394531 4.0625 -4.140625 4.0625 -3.859375 C 4.0625 -3.617188 4.003906 -3.394531 3.890625 -3.1875 C 3.785156 -2.988281 3.640625 -2.820312 3.453125 -2.6875 C 3.273438 -2.5625 3.066406 -2.484375 2.828125 -2.453125 Z M 1.21875 -2.96875 L 2.546875 -2.96875 C 2.816406 -2.96875 3.039062 -3.050781 3.21875 -3.21875 C 3.40625 -3.382812 3.5 -3.601562 3.5 -3.875 C 3.5 -4.144531 3.40625 -4.363281 3.21875 -4.53125 C 3.03125 -4.707031 2.804688 -4.796875 2.546875 -4.796875 L 1.21875 -4.796875 Z M 1.21875 -2.96875 "/></g></g></g><g clip-path="url(#48a21228a1)"><path fill="#0652e9" d="M 77.105469 46.632812 L 77.105469 51.582031 L 54.683594 41.167969 L 54.683594 37.148438 L 77.105469 26.734375 L 77.105469 31.683594 L 60.148438 39.109375 L 60.148438 39.203125 Z M 90.417969 21.230469 L 52.925781 21.230469 C 51.15625 21.230469 49.722656 22.667969 49.722656 24.4375 L 49.722656 53.878906 C 49.722656 55.648438 51.15625 57.082031 52.925781 57.082031 L 80.011719 57.082031 L 90.417969 21.230469 " fill-opacity="1" fill-rule="nonzero"/></g><g clip-path="url(#c96e1412de)"><path fill="#0f1120" d="M 126.09375 22.507812 L 103.675781 32.78125 L 103.675781 27.828125 L 121.003906 20.402344 L 121.003906 20.308594 L 103.675781 12.882812 L 103.675781 7.933594 L 126.09375 18.207031 Z M 100.828125 2.429688 L 90.417969 38.28125 L 127.851562 38.28125 C 129.621094 38.28125 131.058594 36.847656 131.058594 35.078125 L 131.058594 5.636719 C 131.058594 3.867188 129.621094 2.429688 127.851562 2.429688 L 100.828125 2.429688 " fill-opacity="1" fill-rule="nonzero"/></g></svg>