<svg xmlns="http://www.w3.org/2000/svg" xmlns:xlink="http://www.w3.org/1999/xlink" width="250" zoomAndPan="magnify" viewBox="0 0 187.5 93.749996" height="125" preserveAspectRatio="xMidYMid meet" version="1.0"><defs><g/><clipPath id="36c117124d"><path d="M 92.1875 20 L 93 20 L 93 38.039062 L 92.1875 38.039062 Z M 92.1875 20 " clip-rule="nonzero"/></clipPath><clipPath id="fd45bca78c"><path d="M 92.1875 2.132812 L 132.414062 2.132812 L 132.414062 38 L 92.1875 38 Z M 92.1875 2.132812 " clip-rule="nonzero"/></clipPath><clipPath id="79023857e6"><path d="M 51.707031 20 L 92.097656 20 L 92.097656 56.265625 L 51.707031 56.265625 Z M 51.707031 20 " clip-rule="nonzero"/></clipPath><clipPath id="cb07002142"><path d="M 92 19.613281 L 92.097656 19.613281 L 92.097656 38 L 92 38 Z M 92 19.613281 " clip-rule="nonzero"/></clipPath></defs><g clip-path="url(#36c117124d)"><path fill="#0652e9" d="M 78.941406 46.230469 L 78.941406 51.167969 L 56.582031 40.78125 L 56.582031 36.773438 L 78.941406 26.386719 L 78.941406 31.324219 L 62.03125 38.730469 L 62.03125 38.824219 Z M 92.21875 20.898438 L 54.828125 20.898438 C 53.0625 20.898438 51.632812 22.332031 51.632812 24.097656 L 51.632812 53.457031 C 51.632812 55.222656 53.0625 56.652344 54.828125 56.652344 L 81.839844 56.652344 L 92.21875 20.898438 " fill-opacity="1" fill-rule="nonzero"/></g><g clip-path="url(#fd45bca78c)"><path fill="#62e1e9" d="M 127.796875 22.167969 L 105.4375 32.417969 L 105.4375 27.480469 L 122.71875 20.074219 L 122.71875 19.980469 L 105.4375 12.574219 L 105.4375 7.636719 L 127.796875 17.882812 Z M 102.597656 2.148438 L 92.21875 37.902344 L 129.550781 37.902344 C 131.316406 37.902344 132.746094 36.472656 132.746094 34.707031 L 132.746094 5.347656 C 132.746094 3.582031 131.316406 2.148438 129.550781 2.148438 L 102.597656 2.148438 " fill-opacity="1" fill-rule="nonzero"/></g><g fill="#ffffff" fill-opacity="1"><g transform="translate(28.0549, 77.508974)"><g><path d="M 14.515625 -12.5 L 17.40625 -12.5 L 13.984375 0 L 10.828125 0 L 8.5625 -8.78125 L 6.28125 0 L 3.125 0 L -0.296875 -12.5 L 2.609375 -12.5 L 4.84375 -3.796875 L 7.21875 -12.5 L 9.890625 -12.5 L 12.28125 -3.828125 Z M 14.515625 -12.5 "/></g></g></g><g fill="#ffffff" fill-opacity="1"><g transform="translate(45.89728, 77.508974)"><g><path d="M 8.84375 -10.078125 L 4.078125 -10.078125 L 4.078125 -7.453125 L 8.15625 -7.453125 L 8.15625 -5.03125 L 4.078125 -5.03125 L 4.078125 -2.421875 L 8.84375 -2.421875 L 8.84375 0 L 1.328125 0 L 1.328125 -12.5 L 8.84375 -12.5 Z M 8.84375 -10.078125 "/></g></g></g><g fill="#ffffff" fill-opacity="1"><g transform="translate(56.329666, 77.508974)"><g><path d="M 10.203125 -12.5 L 12.921875 -12.5 L 12.921875 0 L 10.09375 0 L 3.984375 -8.28125 L 3.984375 0 L 1.234375 0 L 1.234375 -12.5 L 4.0625 -12.5 L 10.203125 -4.21875 Z M 10.203125 -12.5 "/></g></g></g><g fill="#ffffff" fill-opacity="1"><g transform="translate(71.237186, 77.508974)"><g><path d="M 1.234375 0 L 1.234375 -12.5 L 5.34375 -12.5 C 6.207031 -12.5 7.015625 -12.332031 7.765625 -12 C 8.523438 -11.675781 9.191406 -11.226562 9.765625 -10.65625 C 10.335938 -10.09375 10.785156 -9.429688 11.109375 -8.671875 C 11.429688 -7.910156 11.59375 -7.101562 11.59375 -6.25 C 11.59375 -5.382812 11.429688 -4.570312 11.109375 -3.8125 C 10.785156 -3.0625 10.335938 -2.398438 9.765625 -1.828125 C 9.191406 -1.265625 8.523438 -0.816406 7.765625 -0.484375 C 7.015625 -0.160156 6.207031 0 5.34375 0 Z M 3.984375 -2.4375 L 5.328125 -2.4375 C 5.992188 -2.4375 6.585938 -2.601562 7.109375 -2.9375 C 7.640625 -3.269531 8.0625 -3.722656 8.375 -4.296875 C 8.6875 -4.867188 8.84375 -5.519531 8.84375 -6.25 C 8.84375 -6.96875 8.6875 -7.613281 8.375 -8.1875 C 8.0625 -8.769531 7.640625 -9.226562 7.109375 -9.5625 C 6.585938 -9.894531 5.992188 -10.0625 5.328125 -10.0625 L 3.984375 -10.0625 Z M 3.984375 -2.4375 "/></g></g></g><g fill="#ffffff" fill-opacity="1"><g transform="translate(84.333841, 77.508974)"><g><path d="M 3.984375 -2.4375 L 8.125 -2.4375 L 8.125 0 L 1.234375 0 L 1.234375 -12.5 L 3.984375 -12.5 Z M 3.984375 -2.4375 "/></g></g></g><g fill="#ffffff" fill-opacity="1"><g transform="translate(93.225944, 77.508974)"><g><path d="M 8.84375 -10.078125 L 4.078125 -10.078125 L 4.078125 -7.453125 L 8.15625 -7.453125 L 8.15625 -5.03125 L 4.078125 -5.03125 L 4.078125 -2.421875 L 8.84375 -2.421875 L 8.84375 0 L 1.328125 0 L 1.328125 -12.5 L 8.84375 -12.5 Z M 8.84375 -10.078125 "/></g></g></g><g fill="#ffffff" fill-opacity="1"><g transform="translate(103.658331, 77.508974)"><g><path d="M 7.75 -5.140625 L 11.25 0 L 8.15625 0 L 5.078125 -4.828125 L 3.984375 -4.828125 L 3.984375 0 L 1.234375 0 L 1.234375 -12.5 L 6.53125 -12.5 C 7.257812 -12.5 7.898438 -12.328125 8.453125 -11.984375 C 9.003906 -11.640625 9.441406 -11.175781 9.765625 -10.59375 C 10.097656 -10.007812 10.265625 -9.363281 10.265625 -8.65625 C 10.265625 -7.8125 10.023438 -7.066406 9.546875 -6.421875 C 9.078125 -5.785156 8.476562 -5.359375 7.75 -5.140625 Z M 6.125 -7.09375 C 6.5625 -7.09375 6.921875 -7.234375 7.203125 -7.515625 C 7.492188 -7.796875 7.640625 -8.148438 7.640625 -8.578125 C 7.640625 -9.003906 7.492188 -9.359375 7.203125 -9.640625 C 6.921875 -9.921875 6.5625 -10.0625 6.125 -10.0625 L 3.984375 -10.0625 L 3.984375 -7.09375 Z M 6.125 -7.09375 "/></g></g></g><g fill="#ffffff" fill-opacity="1"><g transform="translate(115.526921, 77.508974)"><g/></g></g><g fill="#ffffff" fill-opacity="1"><g transform="translate(121.255206, 77.508974)"><g><path d="M 1.234375 0 L 1.234375 -12.5 L 5.34375 -12.5 C 6.207031 -12.5 7.015625 -12.332031 7.765625 -12 C 8.523438 -11.675781 9.191406 -11.226562 9.765625 -10.65625 C 10.335938 -10.09375 10.785156 -9.429688 11.109375 -8.671875 C 11.429688 -7.910156 11.59375 -7.101562 11.59375 -6.25 C 11.59375 -5.382812 11.429688 -4.570312 11.109375 -3.8125 C 10.785156 -3.0625 10.335938 -2.398438 9.765625 -1.828125 C 9.191406 -1.265625 8.523438 -0.816406 7.765625 -0.484375 C 7.015625 -0.160156 6.207031 0 5.34375 0 Z M 3.984375 -2.4375 L 5.328125 -2.4375 C 5.992188 -2.4375 6.585938 -2.601562 7.109375 -2.9375 C 7.640625 -3.269531 8.0625 -3.722656 8.375 -4.296875 C 8.6875 -4.867188 8.84375 -5.519531 8.84375 -6.25 C 8.84375 -6.96875 8.6875 -7.613281 8.375 -8.1875 C 8.0625 -8.769531 7.640625 -9.226562 7.109375 -9.5625 C 6.585938 -9.894531 5.992188 -10.0625 5.328125 -10.0625 L 3.984375 -10.0625 Z M 3.984375 -2.4375 "/></g></g></g><g fill="#ffffff" fill-opacity="1"><g transform="translate(134.351862, 77.508974)"><g><path d="M 8.84375 -10.078125 L 4.078125 -10.078125 L 4.078125 -7.453125 L 8.15625 -7.453125 L 8.15625 -5.03125 L 4.078125 -5.03125 L 4.078125 -2.421875 L 8.84375 -2.421875 L 8.84375 0 L 1.328125 0 L 1.328125 -12.5 L 8.84375 -12.5 Z M 8.84375 -10.078125 "/></g></g></g><g fill="#ffffff" fill-opacity="1"><g transform="translate(144.784249, 77.508974)"><g><path d="M 8.75 -12.5 L 11.8125 -12.5 L 7.3125 0 L 4.21875 0 L -0.265625 -12.5 L 2.796875 -12.5 L 5.765625 -3.5625 Z M 8.75 -12.5 "/></g></g></g><g fill="#ffffff" fill-opacity="1"><g transform="translate(31.437527, 89.404647)"><g><path d="M 2 0.078125 C 1.601562 0.078125 1.25 -0.0195312 0.9375 -0.21875 C 0.625 -0.425781 0.398438 -0.691406 0.265625 -1.015625 L 0.78125 -1.328125 C 0.875 -1.078125 1.023438 -0.875 1.234375 -0.71875 C 1.441406 -0.570312 1.703125 -0.5 2.015625 -0.5 C 2.304688 -0.5 2.554688 -0.578125 2.765625 -0.734375 C 2.972656 -0.890625 3.078125 -1.109375 3.078125 -1.390625 C 3.078125 -1.609375 3.015625 -1.785156 2.890625 -1.921875 C 2.765625 -2.066406 2.601562 -2.1875 2.40625 -2.28125 C 2.207031 -2.375 2 -2.460938 1.78125 -2.546875 C 1.5625 -2.640625 1.347656 -2.742188 1.140625 -2.859375 C 0.941406 -2.984375 0.78125 -3.132812 0.65625 -3.3125 C 0.53125 -3.5 0.46875 -3.734375 0.46875 -4.015625 C 0.46875 -4.304688 0.535156 -4.554688 0.671875 -4.765625 C 0.804688 -4.984375 0.984375 -5.144531 1.203125 -5.25 C 1.429688 -5.363281 1.6875 -5.421875 1.96875 -5.421875 C 2.269531 -5.421875 2.546875 -5.359375 2.796875 -5.234375 C 3.046875 -5.109375 3.242188 -4.945312 3.390625 -4.75 L 2.953125 -4.375 C 2.722656 -4.695312 2.398438 -4.859375 1.984375 -4.859375 C 1.734375 -4.859375 1.515625 -4.789062 1.328125 -4.65625 C 1.140625 -4.53125 1.046875 -4.332031 1.046875 -4.0625 C 1.046875 -3.84375 1.109375 -3.664062 1.234375 -3.53125 C 1.359375 -3.40625 1.519531 -3.296875 1.71875 -3.203125 C 1.914062 -3.117188 2.125 -3.03125 2.34375 -2.9375 C 2.5625 -2.851562 2.769531 -2.75 2.96875 -2.625 C 3.175781 -2.507812 3.34375 -2.351562 3.46875 -2.15625 C 3.59375 -1.957031 3.65625 -1.707031 3.65625 -1.40625 C 3.65625 -1.101562 3.578125 -0.835938 3.421875 -0.609375 C 3.273438 -0.390625 3.078125 -0.21875 2.828125 -0.09375 C 2.578125 0.0195312 2.300781 0.078125 2 0.078125 Z M 2 0.078125 "/></g></g></g><g fill="#ffffff" fill-opacity="1"><g transform="translate(37.736345, 89.404647)"><g><path d="M 3.1875 0.078125 C 2.800781 0.078125 2.441406 0.00390625 2.109375 -0.140625 C 1.785156 -0.285156 1.492188 -0.484375 1.234375 -0.734375 C 0.984375 -0.984375 0.785156 -1.273438 0.640625 -1.609375 C 0.503906 -1.941406 0.4375 -2.296875 0.4375 -2.671875 C 0.4375 -3.054688 0.503906 -3.410156 0.640625 -3.734375 C 0.785156 -4.066406 0.984375 -4.359375 1.234375 -4.609375 C 1.492188 -4.867188 1.785156 -5.066406 2.109375 -5.203125 C 2.441406 -5.347656 2.800781 -5.421875 3.1875 -5.421875 C 3.5625 -5.421875 3.914062 -5.347656 4.25 -5.203125 C 4.582031 -5.066406 4.875 -4.867188 5.125 -4.609375 C 5.375 -4.359375 5.570312 -4.066406 5.71875 -3.734375 C 5.863281 -3.410156 5.9375 -3.054688 5.9375 -2.671875 C 5.9375 -2.296875 5.863281 -1.941406 5.71875 -1.609375 C 5.570312 -1.273438 5.375 -0.984375 5.125 -0.734375 C 4.875 -0.484375 4.582031 -0.285156 4.25 -0.140625 C 3.914062 0.00390625 3.5625 0.078125 3.1875 0.078125 Z M 3.1875 -0.5 C 3.59375 -0.5 3.957031 -0.59375 4.28125 -0.78125 C 4.613281 -0.976562 4.875 -1.242188 5.0625 -1.578125 C 5.257812 -1.910156 5.359375 -2.273438 5.359375 -2.671875 C 5.359375 -3.078125 5.257812 -3.445312 5.0625 -3.78125 C 4.875 -4.113281 4.613281 -4.375 4.28125 -4.5625 C 3.957031 -4.757812 3.59375 -4.859375 3.1875 -4.859375 C 2.789062 -4.859375 2.425781 -4.757812 2.09375 -4.5625 C 1.757812 -4.375 1.492188 -4.113281 1.296875 -3.78125 C 1.109375 -3.445312 1.015625 -3.078125 1.015625 -2.671875 C 1.015625 -2.273438 1.109375 -1.910156 1.296875 -1.578125 C 1.492188 -1.242188 1.757812 -0.976562 2.09375 -0.78125 C 2.425781 -0.59375 2.789062 -0.5 3.1875 -0.5 Z M 3.1875 -0.5 "/></g></g></g><g fill="#ffffff" fill-opacity="1"><g transform="translate(46.506494, 89.404647)"><g><path d="M 3.625 -4.796875 L 1.265625 -4.796875 L 1.265625 -2.953125 L 3.328125 -2.953125 L 3.328125 -2.40625 L 1.265625 -2.40625 L 1.265625 0 L 0.703125 0 L 0.703125 -5.359375 L 3.625 -5.359375 Z M 3.625 -4.796875 "/></g></g></g><g fill="#ffffff" fill-opacity="1"><g transform="translate(52.680408, 89.404647)"><g><path d="M 3.609375 -5.359375 L 3.609375 -4.78125 L 2.140625 -4.78125 L 2.140625 0 L 1.5625 0 L 1.5625 -4.78125 L 0.078125 -4.78125 L 0.078125 -5.359375 Z M 3.609375 -5.359375 "/></g></g></g><g fill="#ffffff" fill-opacity="1"><g transform="translate(58.765106, 89.404647)"><g><path d="M 6.6875 -5.359375 L 7.28125 -5.359375 L 5.609375 0 L 5 0 L 3.609375 -4.75 L 2.234375 0 L 1.625 0 L -0.046875 -5.359375 L 0.546875 -5.359375 L 1.921875 -0.96875 L 3.203125 -5.359375 L 4 -5.359375 L 5.3125 -0.953125 Z M 6.6875 -5.359375 "/></g></g></g><g fill="#ffffff" fill-opacity="1"><g transform="translate(68.373897, 89.404647)"><g><path d="M 3.875 0 L 3.4375 -1.25 L 1.0625 -1.25 L 0.625 0 L 0 0 L 1.9375 -5.359375 L 2.578125 -5.359375 L 4.5 0 Z M 1.25 -1.796875 L 3.265625 -1.796875 L 2.265625 -4.671875 Z M 1.25 -1.796875 "/></g></g></g><g fill="#ffffff" fill-opacity="1"><g transform="translate(75.270473, 89.404647)"><g><path d="M 2.828125 -2.453125 L 4.40625 0 L 3.75 0 L 2.234375 -2.421875 L 1.21875 -2.421875 L 1.21875 0 L 0.65625 0 L 0.65625 -5.359375 L 2.578125 -5.359375 C 2.847656 -5.359375 3.09375 -5.289062 3.3125 -5.15625 C 3.539062 -5.019531 3.722656 -4.835938 3.859375 -4.609375 C 3.992188 -4.390625 4.0625 -4.140625 4.0625 -3.859375 C 4.0625 -3.617188 4.003906 -3.394531 3.890625 -3.1875 C 3.785156 -2.988281 3.640625 -2.820312 3.453125 -2.6875 C 3.265625 -2.5625 3.054688 -2.484375 2.828125 -2.453125 Z M 1.21875 -2.96875 L 2.53125 -2.96875 C 2.8125 -2.96875 3.039062 -3.050781 3.21875 -3.21875 C 3.394531 -3.382812 3.484375 -3.601562 3.484375 -3.875 C 3.484375 -4.144531 3.390625 -4.363281 3.203125 -4.53125 C 3.023438 -4.695312 2.800781 -4.78125 2.53125 -4.78125 L 1.21875 -4.78125 Z M 1.21875 -2.96875 "/></g></g></g><g fill="#ffffff" fill-opacity="1"><g transform="translate(82.140285, 89.404647)"><g><path d="M 3.625 -4.796875 L 1.265625 -4.796875 L 1.265625 -2.953125 L 3.328125 -2.953125 L 3.328125 -2.40625 L 1.265625 -2.40625 L 1.265625 -0.546875 L 3.625 -0.546875 L 3.625 0 L 0.703125 0 L 0.703125 -5.359375 L 3.625 -5.359375 Z M 3.625 -4.796875 "/></g></g></g><g fill="#ffffff" fill-opacity="1"><g transform="translate(88.688912, 89.404647)"><g/></g></g><g fill="#ffffff" fill-opacity="1"><g transform="translate(93.230136, 89.404647)"><g><path d="M 0.65625 0 L 0.65625 -5.359375 L 2.109375 -5.359375 C 2.484375 -5.359375 2.832031 -5.285156 3.15625 -5.140625 C 3.476562 -5.003906 3.757812 -4.8125 4 -4.5625 C 4.25 -4.320312 4.441406 -4.039062 4.578125 -3.71875 C 4.722656 -3.394531 4.796875 -3.046875 4.796875 -2.671875 C 4.796875 -2.304688 4.722656 -1.960938 4.578125 -1.640625 C 4.441406 -1.316406 4.25 -1.03125 4 -0.78125 C 3.757812 -0.539062 3.476562 -0.347656 3.15625 -0.203125 C 2.832031 -0.0664062 2.484375 0 2.109375 0 Z M 1.21875 -0.578125 L 2.109375 -0.578125 C 2.503906 -0.578125 2.859375 -0.664062 3.171875 -0.84375 C 3.492188 -1.03125 3.75 -1.28125 3.9375 -1.59375 C 4.125 -1.914062 4.21875 -2.273438 4.21875 -2.671875 C 4.21875 -3.078125 4.125 -3.4375 3.9375 -3.75 C 3.75 -4.070312 3.492188 -4.320312 3.171875 -4.5 C 2.859375 -4.6875 2.503906 -4.78125 2.109375 -4.78125 L 1.21875 -4.78125 Z M 1.21875 -0.578125 "/></g></g></g><g fill="#ffffff" fill-opacity="1"><g transform="translate(100.84937, 89.404647)"><g><path d="M 3.625 -4.796875 L 1.265625 -4.796875 L 1.265625 -2.953125 L 3.328125 -2.953125 L 3.328125 -2.40625 L 1.265625 -2.40625 L 1.265625 -0.546875 L 3.625 -0.546875 L 3.625 0 L 0.703125 0 L 0.703125 -5.359375 L 3.625 -5.359375 Z M 3.625 -4.796875 "/></g></g></g><g fill="#ffffff" fill-opacity="1"><g transform="translate(107.397994, 89.404647)"><g><path d="M 3.875 -5.359375 L 4.5 -5.359375 L 2.578125 0 L 1.9375 0 L 0 -5.359375 L 0.640625 -5.359375 L 2.265625 -0.734375 Z M 3.875 -5.359375 "/></g></g></g><g fill="#ffffff" fill-opacity="1"><g transform="translate(114.294567, 89.404647)"><g><path d="M 3.625 -4.796875 L 1.265625 -4.796875 L 1.265625 -2.953125 L 3.328125 -2.953125 L 3.328125 -2.40625 L 1.265625 -2.40625 L 1.265625 -0.546875 L 3.625 -0.546875 L 3.625 0 L 0.703125 0 L 0.703125 -5.359375 L 3.625 -5.359375 Z M 3.625 -4.796875 "/></g></g></g><g fill="#ffffff" fill-opacity="1"><g transform="translate(120.843191, 89.404647)"><g><path d="M 1.21875 -0.578125 L 3.21875 -0.578125 L 3.21875 0 L 0.65625 0 L 0.65625 -5.359375 L 1.21875 -5.359375 Z M 1.21875 -0.578125 "/></g></g></g><g fill="#ffffff" fill-opacity="1"><g transform="translate(126.526401, 89.404647)"><g><path d="M 3.1875 0.078125 C 2.800781 0.078125 2.441406 0.00390625 2.109375 -0.140625 C 1.785156 -0.285156 1.492188 -0.484375 1.234375 -0.734375 C 0.984375 -0.984375 0.785156 -1.273438 0.640625 -1.609375 C 0.503906 -1.941406 0.4375 -2.296875 0.4375 -2.671875 C 0.4375 -3.054688 0.503906 -3.410156 0.640625 -3.734375 C 0.785156 -4.066406 0.984375 -4.359375 1.234375 -4.609375 C 1.492188 -4.867188 1.785156 -5.066406 2.109375 -5.203125 C 2.441406 -5.347656 2.800781 -5.421875 3.1875 -5.421875 C 3.5625 -5.421875 3.914062 -5.347656 4.25 -5.203125 C 4.582031 -5.066406 4.875 -4.867188 5.125 -4.609375 C 5.375 -4.359375 5.570312 -4.066406 5.71875 -3.734375 C 5.863281 -3.410156 5.9375 -3.054688 5.9375 -2.671875 C 5.9375 -2.296875 5.863281 -1.941406 5.71875 -1.609375 C 5.570312 -1.273438 5.375 -0.984375 5.125 -0.734375 C 4.875 -0.484375 4.582031 -0.285156 4.25 -0.140625 C 3.914062 0.00390625 3.5625 0.078125 3.1875 0.078125 Z M 3.1875 -0.5 C 3.59375 -0.5 3.957031 -0.59375 4.28125 -0.78125 C 4.613281 -0.976562 4.875 -1.242188 5.0625 -1.578125 C 5.257812 -1.910156 5.359375 -2.273438 5.359375 -2.671875 C 5.359375 -3.078125 5.257812 -3.445312 5.0625 -3.78125 C 4.875 -4.113281 4.613281 -4.375 4.28125 -4.5625 C 3.957031 -4.757812 3.59375 -4.859375 3.1875 -4.859375 C 2.789062 -4.859375 2.425781 -4.757812 2.09375 -4.5625 C 1.757812 -4.375 1.492188 -4.113281 1.296875 -3.78125 C 1.109375 -3.445312 1.015625 -3.078125 1.015625 -2.671875 C 1.015625 -2.273438 1.109375 -1.910156 1.296875 -1.578125 C 1.492188 -1.242188 1.757812 -0.976562 2.09375 -0.78125 C 2.425781 -0.59375 2.789062 -0.5 3.1875 -0.5 Z M 3.1875 -0.5 "/></g></g></g><g fill="#ffffff" fill-opacity="1"><g transform="translate(135.296552, 89.404647)"><g><path d="M 2.578125 -5.359375 C 2.847656 -5.359375 3.09375 -5.289062 3.3125 -5.15625 C 3.539062 -5.019531 3.722656 -4.835938 3.859375 -4.609375 C 3.992188 -4.390625 4.0625 -4.140625 4.0625 -3.859375 C 4.0625 -3.585938 3.992188 -3.335938 3.859375 -3.109375 C 3.722656 -2.890625 3.539062 -2.710938 3.3125 -2.578125 C 3.09375 -2.453125 2.847656 -2.390625 2.578125 -2.390625 L 1.21875 -2.390625 L 1.21875 0 L 0.65625 0 L 0.65625 -5.359375 Z M 2.515625 -2.921875 C 2.785156 -2.921875 3.015625 -3.003906 3.203125 -3.171875 C 3.390625 -3.335938 3.484375 -3.566406 3.484375 -3.859375 C 3.484375 -4.140625 3.390625 -4.363281 3.203125 -4.53125 C 3.015625 -4.707031 2.785156 -4.796875 2.515625 -4.796875 L 1.21875 -4.796875 L 1.21875 -2.921875 Z M 2.515625 -2.921875 "/></g></g></g><g fill="#ffffff" fill-opacity="1"><g transform="translate(141.898705, 89.404647)"><g><path d="M 3.625 -4.796875 L 1.265625 -4.796875 L 1.265625 -2.953125 L 3.328125 -2.953125 L 3.328125 -2.40625 L 1.265625 -2.40625 L 1.265625 -0.546875 L 3.625 -0.546875 L 3.625 0 L 0.703125 0 L 0.703125 -5.359375 L 3.625 -5.359375 Z M 3.625 -4.796875 "/></g></g></g><g fill="#ffffff" fill-opacity="1"><g transform="translate(148.447329, 89.404647)"><g><path d="M 2.828125 -2.453125 L 4.40625 0 L 3.75 0 L 2.234375 -2.421875 L 1.21875 -2.421875 L 1.21875 0 L 0.65625 0 L 0.65625 -5.359375 L 2.578125 -5.359375 C 2.847656 -5.359375 3.09375 -5.289062 3.3125 -5.15625 C 3.539062 -5.019531 3.722656 -4.835938 3.859375 -4.609375 C 3.992188 -4.390625 4.0625 -4.140625 4.0625 -3.859375 C 4.0625 -3.617188 4.003906 -3.394531 3.890625 -3.1875 C 3.785156 -2.988281 3.640625 -2.820312 3.453125 -2.6875 C 3.265625 -2.5625 3.054688 -2.484375 2.828125 -2.453125 Z M 1.21875 -2.96875 L 2.53125 -2.96875 C 2.8125 -2.96875 3.039062 -3.050781 3.21875 -3.21875 C 3.394531 -3.382812 3.484375 -3.601562 3.484375 -3.875 C 3.484375 -4.144531 3.390625 -4.363281 3.203125 -4.53125 C 3.023438 -4.695312 2.800781 -4.78125 2.53125 -4.78125 L 1.21875 -4.78125 Z M 1.21875 -2.96875 "/></g></g></g><g clip-path="url(#79023857e6)"><path fill="#0652e9" d="M 79.019531 45.835938 L 79.019531 50.773438 L 56.660156 40.386719 L 56.660156 36.378906 L 79.019531 25.992188 L 79.019531 30.929688 L 62.109375 38.335938 L 62.109375 38.429688 Z M 92.296875 20.503906 L 54.90625 20.503906 C 53.140625 20.503906 51.710938 21.9375 51.710938 23.703125 L 51.710938 53.0625 C 51.710938 54.828125 53.140625 56.257812 54.90625 56.257812 L 81.917969 56.257812 L 92.296875 20.503906 " fill-opacity="1" fill-rule="nonzero"/></g><g clip-path="url(#cb07002142)"><path fill="#62e1e9" d="M 127.875 21.777344 L 105.515625 32.023438 L 105.515625 27.085938 L 122.796875 19.679688 L 122.796875 19.585938 L 105.515625 12.179688 L 105.515625 7.242188 L 127.875 17.492188 Z M 102.679688 1.757812 L 92.296875 37.511719 L 129.628906 37.511719 C 131.394531 37.511719 132.824219 36.078125 132.824219 34.3125 L 132.824219 4.953125 C 132.824219 3.1875 131.394531 1.757812 129.628906 1.757812 L 102.679688 1.757812 " fill-opacity="1" fill-rule="nonzero"/></g></svg>