<svg xmlns="http://www.w3.org/2000/svg" xmlns:xlink="http://www.w3.org/1999/xlink" width="250" zoomAndPan="magnify" viewBox="0 0 187.5 93.749996" height="125" preserveAspectRatio="xMidYMid meet" version="1.0"><defs><g/><clipPath id="05cf046d36"><path d="M 93.109375 21 L 94 21 L 94 38.0625 L 93.109375 38.0625 Z M 93.109375 21 " clip-rule="nonzero"/></clipPath><clipPath id="d8f5567f6f"><path d="M 93.109375 2.160156 L 133.851562 2.160156 L 133.851562 38.0625 L 93.109375 38.0625 Z M 93.109375 2.160156 " clip-rule="nonzero"/></clipPath><clipPath id="ce00a52a90"><path d="M 52.398438 20 L 92.789062 20 L 92.789062 56.367188 L 52.398438 56.367188 Z M 52.398438 20 " clip-rule="nonzero"/></clipPath></defs><g clip-path="url(#05cf046d36)"><path fill="#0652e9" d="M 79.785156 46.511719 L 79.785156 51.476562 L 57.300781 41.027344 L 57.300781 37 L 79.785156 26.550781 L 79.785156 31.519531 L 62.78125 38.96875 L 62.78125 39.0625 Z M 93.140625 21.035156 L 55.535156 21.035156 C 53.761719 21.035156 52.320312 22.472656 52.320312 24.25 L 52.320312 53.777344 C 52.320312 55.554688 53.761719 56.992188 55.535156 56.992188 L 82.703125 56.992188 L 93.140625 21.035156 " fill-opacity="1" fill-rule="nonzero"/></g><g clip-path="url(#d8f5567f6f)"><path fill="#62e1e9" d="M 128.921875 22.3125 L 106.4375 32.617188 L 106.4375 27.652344 L 123.816406 20.203125 L 123.816406 20.109375 L 106.4375 12.660156 L 106.4375 7.695312 L 128.921875 18 Z M 103.582031 2.175781 L 93.140625 38.136719 L 130.6875 38.136719 C 132.464844 38.136719 133.902344 36.695312 133.902344 34.921875 L 133.902344 5.390625 C 133.902344 3.617188 132.464844 2.175781 130.6875 2.175781 L 103.582031 2.175781 " fill-opacity="1" fill-rule="nonzero"/></g><g fill="#ffffff" fill-opacity="1"><g transform="translate(29.000193, 77.403766)"><g><path d="M 14.59375 -12.5625 L 17.5 -12.5625 L 14.0625 0 L 10.890625 0 L 8.609375 -8.828125 L 6.328125 0 L 3.140625 0 L -0.296875 -12.5625 L 2.609375 -12.5625 L 4.875 -3.8125 L 7.265625 -12.5625 L 9.9375 -12.5625 L 12.359375 -3.859375 Z M 14.59375 -12.5625 "/></g></g></g><g fill="#ffffff" fill-opacity="1"><g transform="translate(46.94494, 77.403766)"><g><path d="M 8.890625 -10.140625 L 4.109375 -10.140625 L 4.109375 -7.5 L 8.203125 -7.5 L 8.203125 -5.0625 L 4.109375 -5.0625 L 4.109375 -2.421875 L 8.890625 -2.421875 L 8.890625 0 L 1.34375 0 L 1.34375 -12.5625 L 8.890625 -12.5625 Z M 8.890625 -10.140625 "/></g></g></g><g fill="#ffffff" fill-opacity="1"><g transform="translate(57.43718, 77.403766)"><g><path d="M 10.265625 -12.5625 L 13 -12.5625 L 13 0 L 10.15625 0 L 4 -8.328125 L 4 0 L 1.234375 0 L 1.234375 -12.5625 L 4.078125 -12.5625 L 10.265625 -4.25 Z M 10.265625 -12.5625 "/></g></g></g><g fill="#ffffff" fill-opacity="1"><g transform="translate(72.430229, 77.403766)"><g><path d="M 1.234375 0 L 1.234375 -12.5625 L 5.375 -12.5625 C 6.238281 -12.5625 7.050781 -12.394531 7.8125 -12.0625 C 8.582031 -11.738281 9.25 -11.289062 9.8125 -10.71875 C 10.382812 -10.144531 10.832031 -9.476562 11.15625 -8.71875 C 11.488281 -7.957031 11.65625 -7.144531 11.65625 -6.28125 C 11.65625 -5.414062 11.488281 -4.601562 11.15625 -3.84375 C 10.832031 -3.082031 10.382812 -2.414062 9.8125 -1.84375 C 9.25 -1.269531 8.582031 -0.816406 7.8125 -0.484375 C 7.050781 -0.160156 6.238281 0 5.375 0 Z M 4 -2.453125 L 5.359375 -2.453125 C 6.023438 -2.453125 6.625 -2.617188 7.15625 -2.953125 C 7.6875 -3.285156 8.109375 -3.738281 8.421875 -4.3125 C 8.734375 -4.894531 8.890625 -5.550781 8.890625 -6.28125 C 8.890625 -7.007812 8.734375 -7.660156 8.421875 -8.234375 C 8.109375 -8.816406 7.6875 -9.273438 7.15625 -9.609375 C 6.625 -9.941406 6.023438 -10.109375 5.359375 -10.109375 L 4 -10.109375 Z M 4 -2.453125 "/></g></g></g><g fill="#ffffff" fill-opacity="1"><g transform="translate(85.602024, 77.403766)"><g><path d="M 4 -2.453125 L 8.171875 -2.453125 L 8.171875 0 L 1.234375 0 L 1.234375 -12.5625 L 4 -12.5625 Z M 4 -2.453125 "/></g></g></g><g fill="#ffffff" fill-opacity="1"><g transform="translate(94.545143, 77.403766)"><g><path d="M 8.890625 -10.140625 L 4.109375 -10.140625 L 4.109375 -7.5 L 8.203125 -7.5 L 8.203125 -5.0625 L 4.109375 -5.0625 L 4.109375 -2.421875 L 8.890625 -2.421875 L 8.890625 0 L 1.34375 0 L 1.34375 -12.5625 L 8.890625 -12.5625 Z M 8.890625 -10.140625 "/></g></g></g><g fill="#ffffff" fill-opacity="1"><g transform="translate(105.037384, 77.403766)"><g><path d="M 7.78125 -5.171875 L 11.3125 0 L 8.203125 0 L 5.109375 -4.859375 L 4 -4.859375 L 4 0 L 1.234375 0 L 1.234375 -12.5625 L 6.578125 -12.5625 C 7.296875 -12.5625 7.9375 -12.390625 8.5 -12.046875 C 9.0625 -11.703125 9.503906 -11.238281 9.828125 -10.65625 C 10.160156 -10.070312 10.328125 -9.421875 10.328125 -8.703125 C 10.328125 -7.859375 10.085938 -7.113281 9.609375 -6.46875 C 9.128906 -5.820312 8.519531 -5.390625 7.78125 -5.171875 Z M 6.15625 -7.140625 C 6.601562 -7.140625 6.96875 -7.28125 7.25 -7.5625 C 7.539062 -7.84375 7.6875 -8.195312 7.6875 -8.625 C 7.6875 -9.0625 7.539062 -9.414062 7.25 -9.6875 C 6.96875 -9.96875 6.601562 -10.109375 6.15625 -10.109375 L 4 -10.109375 L 4 -7.140625 Z M 6.15625 -7.140625 "/></g></g></g><g fill="#ffffff" fill-opacity="1"><g transform="translate(116.974068, 77.403766)"><g/></g></g><g fill="#ffffff" fill-opacity="1"><g transform="translate(122.735218, 77.403766)"><g><path d="M 1.234375 0 L 1.234375 -12.5625 L 5.375 -12.5625 C 6.238281 -12.5625 7.050781 -12.394531 7.8125 -12.0625 C 8.582031 -11.738281 9.25 -11.289062 9.8125 -10.71875 C 10.382812 -10.144531 10.832031 -9.476562 11.15625 -8.71875 C 11.488281 -7.957031 11.65625 -7.144531 11.65625 -6.28125 C 11.65625 -5.414062 11.488281 -4.601562 11.15625 -3.84375 C 10.832031 -3.082031 10.382812 -2.414062 9.8125 -1.84375 C 9.25 -1.269531 8.582031 -0.816406 7.8125 -0.484375 C 7.050781 -0.160156 6.238281 0 5.375 0 Z M 4 -2.453125 L 5.359375 -2.453125 C 6.023438 -2.453125 6.625 -2.617188 7.15625 -2.953125 C 7.6875 -3.285156 8.109375 -3.738281 8.421875 -4.3125 C 8.734375 -4.894531 8.890625 -5.550781 8.890625 -6.28125 C 8.890625 -7.007812 8.734375 -7.660156 8.421875 -8.234375 C 8.109375 -8.816406 7.6875 -9.273438 7.15625 -9.609375 C 6.625 -9.941406 6.023438 -10.109375 5.359375 -10.109375 L 4 -10.109375 Z M 4 -2.453125 "/></g></g></g><g fill="#ffffff" fill-opacity="1"><g transform="translate(135.907013, 77.403766)"><g><path d="M 8.890625 -10.140625 L 4.109375 -10.140625 L 4.109375 -7.5 L 8.203125 -7.5 L 8.203125 -5.0625 L 4.109375 -5.0625 L 4.109375 -2.421875 L 8.890625 -2.421875 L 8.890625 0 L 1.34375 0 L 1.34375 -12.5625 L 8.890625 -12.5625 Z M 8.890625 -10.140625 "/></g></g></g><g fill="#ffffff" fill-opacity="1"><g transform="translate(146.399254, 77.403766)"><g><path d="M 8.796875 -12.5625 L 11.875 -12.5625 L 7.34375 0 L 4.25 0 L -0.265625 -12.5625 L 2.8125 -12.5625 L 5.796875 -3.578125 Z M 8.796875 -12.5625 "/></g></g></g><g fill="#ffffff" fill-opacity="1"><g transform="translate(32.402226, 89.367691)"><g><path d="M 2.015625 0.078125 C 1.609375 0.078125 1.25 -0.0195312 0.9375 -0.21875 C 0.625 -0.425781 0.398438 -0.691406 0.265625 -1.015625 L 0.78125 -1.328125 C 0.875 -1.078125 1.023438 -0.875 1.234375 -0.71875 C 1.453125 -0.570312 1.710938 -0.5 2.015625 -0.5 C 2.316406 -0.5 2.570312 -0.578125 2.78125 -0.734375 C 2.988281 -0.890625 3.09375 -1.113281 3.09375 -1.40625 C 3.09375 -1.625 3.03125 -1.800781 2.90625 -1.9375 C 2.78125 -2.082031 2.613281 -2.203125 2.40625 -2.296875 C 2.207031 -2.390625 2 -2.476562 1.78125 -2.5625 C 1.5625 -2.65625 1.351562 -2.757812 1.15625 -2.875 C 0.957031 -3 0.789062 -3.148438 0.65625 -3.328125 C 0.53125 -3.515625 0.46875 -3.75 0.46875 -4.03125 C 0.46875 -4.320312 0.535156 -4.570312 0.671875 -4.78125 C 0.804688 -5 0.988281 -5.164062 1.21875 -5.28125 C 1.445312 -5.394531 1.695312 -5.453125 1.96875 -5.453125 C 2.28125 -5.453125 2.5625 -5.382812 2.8125 -5.25 C 3.0625 -5.125 3.257812 -4.96875 3.40625 -4.78125 L 2.953125 -4.40625 C 2.734375 -4.71875 2.410156 -4.875 1.984375 -4.875 C 1.734375 -4.875 1.515625 -4.804688 1.328125 -4.671875 C 1.140625 -4.546875 1.046875 -4.347656 1.046875 -4.078125 C 1.046875 -3.859375 1.109375 -3.679688 1.234375 -3.546875 C 1.359375 -3.421875 1.519531 -3.3125 1.71875 -3.21875 C 1.925781 -3.125 2.140625 -3.035156 2.359375 -2.953125 C 2.578125 -2.867188 2.785156 -2.765625 2.984375 -2.640625 C 3.191406 -2.515625 3.359375 -2.351562 3.484375 -2.15625 C 3.609375 -1.96875 3.671875 -1.722656 3.671875 -1.421875 C 3.671875 -1.109375 3.59375 -0.835938 3.4375 -0.609375 C 3.289062 -0.390625 3.09375 -0.21875 2.84375 -0.09375 C 2.59375 0.0195312 2.316406 0.078125 2.015625 0.078125 Z M 2.015625 0.078125 "/></g></g></g><g fill="#ffffff" fill-opacity="1"><g transform="translate(38.737183, 89.367691)"><g><path d="M 3.203125 0.078125 C 2.816406 0.078125 2.457031 0.00390625 2.125 -0.140625 C 1.789062 -0.285156 1.5 -0.484375 1.25 -0.734375 C 1 -0.992188 0.800781 -1.285156 0.65625 -1.609375 C 0.507812 -1.941406 0.4375 -2.300781 0.4375 -2.6875 C 0.4375 -3.070312 0.507812 -3.429688 0.65625 -3.765625 C 0.800781 -4.097656 1 -4.390625 1.25 -4.640625 C 1.5 -4.890625 1.789062 -5.085938 2.125 -5.234375 C 2.457031 -5.378906 2.816406 -5.453125 3.203125 -5.453125 C 3.585938 -5.453125 3.945312 -5.378906 4.28125 -5.234375 C 4.613281 -5.085938 4.90625 -4.890625 5.15625 -4.640625 C 5.40625 -4.390625 5.601562 -4.097656 5.75 -3.765625 C 5.894531 -3.429688 5.96875 -3.070312 5.96875 -2.6875 C 5.96875 -2.300781 5.894531 -1.941406 5.75 -1.609375 C 5.601562 -1.285156 5.40625 -0.992188 5.15625 -0.734375 C 4.90625 -0.484375 4.613281 -0.285156 4.28125 -0.140625 C 3.945312 0.00390625 3.585938 0.078125 3.203125 0.078125 Z M 3.203125 -0.5 C 3.609375 -0.5 3.976562 -0.59375 4.3125 -0.78125 C 4.644531 -0.976562 4.90625 -1.242188 5.09375 -1.578125 C 5.289062 -1.910156 5.390625 -2.28125 5.390625 -2.6875 C 5.390625 -3.09375 5.289062 -3.460938 5.09375 -3.796875 C 4.90625 -4.128906 4.644531 -4.390625 4.3125 -4.578125 C 3.976562 -4.773438 3.609375 -4.875 3.203125 -4.875 C 2.796875 -4.875 2.425781 -4.773438 2.09375 -4.578125 C 1.769531 -4.390625 1.507812 -4.128906 1.3125 -3.796875 C 1.113281 -3.460938 1.015625 -3.09375 1.015625 -2.6875 C 1.015625 -2.28125 1.113281 -1.910156 1.3125 -1.578125 C 1.507812 -1.242188 1.769531 -0.976562 2.09375 -0.78125 C 2.425781 -0.59375 2.796875 -0.5 3.203125 -0.5 Z M 3.203125 -0.5 "/></g></g></g><g fill="#ffffff" fill-opacity="1"><g transform="translate(47.557649, 89.367691)"><g><path d="M 3.640625 -4.828125 L 1.265625 -4.828125 L 1.265625 -2.96875 L 3.328125 -2.96875 L 3.328125 -2.40625 L 1.265625 -2.40625 L 1.265625 0 L 0.703125 0 L 0.703125 -5.375 L 3.640625 -5.375 Z M 3.640625 -4.828125 "/></g></g></g><g fill="#ffffff" fill-opacity="1"><g transform="translate(53.766985, 89.367691)"><g><path d="M 3.625 -5.375 L 3.625 -4.8125 L 2.140625 -4.8125 L 2.140625 0 L 1.5625 0 L 1.5625 -4.8125 L 0.078125 -4.8125 L 0.078125 -5.375 Z M 3.625 -5.375 "/></g></g></g><g fill="#ffffff" fill-opacity="1"><g transform="translate(59.886592, 89.367691)"><g><path d="M 6.71875 -5.375 L 7.3125 -5.375 L 5.625 0 L 5.03125 0 L 3.625 -4.765625 L 2.234375 0 L 1.625 0 L -0.046875 -5.375 L 0.5625 -5.375 L 1.921875 -0.96875 L 3.21875 -5.375 L 4.03125 -5.375 L 5.328125 -0.953125 Z M 6.71875 -5.375 "/></g></g></g><g fill="#ffffff" fill-opacity="1"><g transform="translate(69.550512, 89.367691)"><g><path d="M 3.90625 0 L 3.453125 -1.25 L 1.0625 -1.25 L 0.625 0 L 0 0 L 1.953125 -5.375 L 2.578125 -5.375 L 4.53125 0 Z M 1.25 -1.796875 L 3.265625 -1.796875 L 2.265625 -4.703125 Z M 1.25 -1.796875 "/></g></g></g><g fill="#ffffff" fill-opacity="1"><g transform="translate(76.486656, 89.367691)"><g><path d="M 2.828125 -2.453125 L 4.421875 0 L 3.765625 0 L 2.234375 -2.421875 L 1.234375 -2.421875 L 1.234375 0 L 0.65625 0 L 0.65625 -5.375 L 2.578125 -5.375 C 2.859375 -5.375 3.109375 -5.304688 3.328125 -5.171875 C 3.554688 -5.035156 3.738281 -4.851562 3.875 -4.625 C 4.007812 -4.40625 4.078125 -4.15625 4.078125 -3.875 C 4.078125 -3.632812 4.019531 -3.410156 3.90625 -3.203125 C 3.800781 -3.003906 3.65625 -2.835938 3.46875 -2.703125 C 3.28125 -2.578125 3.066406 -2.492188 2.828125 -2.453125 Z M 1.234375 -2.96875 L 2.546875 -2.96875 C 2.816406 -2.96875 3.039062 -3.050781 3.21875 -3.21875 C 3.40625 -3.394531 3.5 -3.617188 3.5 -3.890625 C 3.5 -4.160156 3.40625 -4.378906 3.21875 -4.546875 C 3.039062 -4.722656 2.816406 -4.8125 2.546875 -4.8125 L 1.234375 -4.8125 Z M 1.234375 -2.96875 "/></g></g></g><g fill="#ffffff" fill-opacity="1"><g transform="translate(83.395882, 89.367691)"><g><path d="M 3.640625 -4.828125 L 1.265625 -4.828125 L 1.265625 -2.96875 L 3.328125 -2.96875 L 3.328125 -2.40625 L 1.265625 -2.40625 L 1.265625 -0.5625 L 3.640625 -0.5625 L 3.640625 0 L 0.703125 0 L 0.703125 -5.375 L 3.640625 -5.375 Z M 3.640625 -4.828125 "/></g></g></g><g fill="#ffffff" fill-opacity="1"><g transform="translate(89.982081, 89.367691)"><g/></g></g><g fill="#ffffff" fill-opacity="1"><g transform="translate(94.549359, 89.367691)"><g><path d="M 0.65625 0 L 0.65625 -5.375 L 2.125 -5.375 C 2.5 -5.375 2.847656 -5.300781 3.171875 -5.15625 C 3.492188 -5.019531 3.773438 -4.828125 4.015625 -4.578125 C 4.265625 -4.335938 4.457031 -4.054688 4.59375 -3.734375 C 4.738281 -3.410156 4.8125 -3.0625 4.8125 -2.6875 C 4.8125 -2.320312 4.738281 -1.972656 4.59375 -1.640625 C 4.457031 -1.316406 4.265625 -1.03125 4.015625 -0.78125 C 3.773438 -0.539062 3.492188 -0.347656 3.171875 -0.203125 C 2.847656 -0.0664062 2.5 0 2.125 0 Z M 1.21875 -0.578125 L 2.109375 -0.578125 C 2.515625 -0.578125 2.875 -0.664062 3.1875 -0.84375 C 3.507812 -1.03125 3.765625 -1.285156 3.953125 -1.609375 C 4.140625 -1.929688 4.234375 -2.289062 4.234375 -2.6875 C 4.234375 -3.09375 4.140625 -3.453125 3.953125 -3.765625 C 3.765625 -4.085938 3.507812 -4.34375 3.1875 -4.53125 C 2.875 -4.71875 2.515625 -4.8125 2.109375 -4.8125 L 1.21875 -4.8125 Z M 1.21875 -0.578125 "/></g></g></g><g fill="#ffffff" fill-opacity="1"><g transform="translate(102.212307, 89.367691)"><g><path d="M 3.640625 -4.828125 L 1.265625 -4.828125 L 1.265625 -2.96875 L 3.328125 -2.96875 L 3.328125 -2.40625 L 1.265625 -2.40625 L 1.265625 -0.5625 L 3.640625 -0.5625 L 3.640625 0 L 0.703125 0 L 0.703125 -5.375 L 3.640625 -5.375 Z M 3.640625 -4.828125 "/></g></g></g><g fill="#ffffff" fill-opacity="1"><g transform="translate(108.798502, 89.367691)"><g><path d="M 3.90625 -5.375 L 4.53125 -5.375 L 2.578125 0 L 1.953125 0 L 0 -5.375 L 0.640625 -5.375 L 2.265625 -0.734375 Z M 3.90625 -5.375 "/></g></g></g><g fill="#ffffff" fill-opacity="1"><g transform="translate(115.734643, 89.367691)"><g><path d="M 3.640625 -4.828125 L 1.265625 -4.828125 L 1.265625 -2.96875 L 3.328125 -2.96875 L 3.328125 -2.40625 L 1.265625 -2.40625 L 1.265625 -0.5625 L 3.640625 -0.5625 L 3.640625 0 L 0.703125 0 L 0.703125 -5.375 L 3.640625 -5.375 Z M 3.640625 -4.828125 "/></g></g></g><g fill="#ffffff" fill-opacity="1"><g transform="translate(122.320838, 89.367691)"><g><path d="M 1.234375 -0.578125 L 3.234375 -0.578125 L 3.234375 0 L 0.65625 0 L 0.65625 -5.375 L 1.234375 -5.375 Z M 1.234375 -0.578125 "/></g></g></g><g fill="#ffffff" fill-opacity="1"><g transform="translate(128.036655, 89.367691)"><g><path d="M 3.203125 0.078125 C 2.816406 0.078125 2.457031 0.00390625 2.125 -0.140625 C 1.789062 -0.285156 1.5 -0.484375 1.25 -0.734375 C 1 -0.992188 0.800781 -1.285156 0.65625 -1.609375 C 0.507812 -1.941406 0.4375 -2.300781 0.4375 -2.6875 C 0.4375 -3.070312 0.507812 -3.429688 0.65625 -3.765625 C 0.800781 -4.097656 1 -4.390625 1.25 -4.640625 C 1.5 -4.890625 1.789062 -5.085938 2.125 -5.234375 C 2.457031 -5.378906 2.816406 -5.453125 3.203125 -5.453125 C 3.585938 -5.453125 3.945312 -5.378906 4.28125 -5.234375 C 4.613281 -5.085938 4.90625 -4.890625 5.15625 -4.640625 C 5.40625 -4.390625 5.601562 -4.097656 5.75 -3.765625 C 5.894531 -3.429688 5.96875 -3.070312 5.96875 -2.6875 C 5.96875 -2.300781 5.894531 -1.941406 5.75 -1.609375 C 5.601562 -1.285156 5.40625 -0.992188 5.15625 -0.734375 C 4.90625 -0.484375 4.613281 -0.285156 4.28125 -0.140625 C 3.945312 0.00390625 3.585938 0.078125 3.203125 0.078125 Z M 3.203125 -0.5 C 3.609375 -0.5 3.976562 -0.59375 4.3125 -0.78125 C 4.644531 -0.976562 4.90625 -1.242188 5.09375 -1.578125 C 5.289062 -1.910156 5.390625 -2.28125 5.390625 -2.6875 C 5.390625 -3.09375 5.289062 -3.460938 5.09375 -3.796875 C 4.90625 -4.128906 4.644531 -4.390625 4.3125 -4.578125 C 3.976562 -4.773438 3.609375 -4.875 3.203125 -4.875 C 2.796875 -4.875 2.425781 -4.773438 2.09375 -4.578125 C 1.769531 -4.390625 1.507812 -4.128906 1.3125 -3.796875 C 1.113281 -3.460938 1.015625 -3.09375 1.015625 -2.6875 C 1.015625 -2.28125 1.113281 -1.910156 1.3125 -1.578125 C 1.507812 -1.242188 1.769531 -0.976562 2.09375 -0.78125 C 2.425781 -0.59375 2.796875 -0.5 3.203125 -0.5 Z M 3.203125 -0.5 "/></g></g></g><g fill="#ffffff" fill-opacity="1"><g transform="translate(136.857124, 89.367691)"><g><path d="M 2.578125 -5.375 C 2.859375 -5.375 3.109375 -5.304688 3.328125 -5.171875 C 3.554688 -5.035156 3.738281 -4.851562 3.875 -4.625 C 4.007812 -4.40625 4.078125 -4.15625 4.078125 -3.875 C 4.078125 -3.601562 4.007812 -3.351562 3.875 -3.125 C 3.738281 -2.894531 3.554688 -2.710938 3.328125 -2.578125 C 3.109375 -2.453125 2.859375 -2.390625 2.578125 -2.390625 L 1.234375 -2.390625 L 1.234375 0 L 0.65625 0 L 0.65625 -5.375 Z M 2.53125 -2.9375 C 2.800781 -2.9375 3.03125 -3.019531 3.21875 -3.1875 C 3.40625 -3.351562 3.5 -3.582031 3.5 -3.875 C 3.5 -4.15625 3.40625 -4.382812 3.21875 -4.5625 C 3.03125 -4.738281 2.800781 -4.828125 2.53125 -4.828125 L 1.234375 -4.828125 L 1.234375 -2.9375 Z M 2.53125 -2.9375 "/></g></g></g><g fill="#ffffff" fill-opacity="1"><g transform="translate(143.497155, 89.367691)"><g><path d="M 3.640625 -4.828125 L 1.265625 -4.828125 L 1.265625 -2.96875 L 3.328125 -2.96875 L 3.328125 -2.40625 L 1.265625 -2.40625 L 1.265625 -0.5625 L 3.640625 -0.5625 L 3.640625 0 L 0.703125 0 L 0.703125 -5.375 L 3.640625 -5.375 Z M 3.640625 -4.828125 "/></g></g></g><g fill="#ffffff" fill-opacity="1"><g transform="translate(150.08335, 89.367691)"><g><path d="M 2.828125 -2.453125 L 4.421875 0 L 3.765625 0 L 2.234375 -2.421875 L 1.234375 -2.421875 L 1.234375 0 L 0.65625 0 L 0.65625 -5.375 L 2.578125 -5.375 C 2.859375 -5.375 3.109375 -5.304688 3.328125 -5.171875 C 3.554688 -5.035156 3.738281 -4.851562 3.875 -4.625 C 4.007812 -4.40625 4.078125 -4.15625 4.078125 -3.875 C 4.078125 -3.632812 4.019531 -3.410156 3.90625 -3.203125 C 3.800781 -3.003906 3.65625 -2.835938 3.46875 -2.703125 C 3.28125 -2.578125 3.066406 -2.492188 2.828125 -2.453125 Z M 1.234375 -2.96875 L 2.546875 -2.96875 C 2.816406 -2.96875 3.039062 -3.050781 3.21875 -3.21875 C 3.40625 -3.394531 3.5 -3.617188 3.5 -3.890625 C 3.5 -4.160156 3.40625 -4.378906 3.21875 -4.546875 C 3.039062 -4.722656 2.816406 -4.8125 2.546875 -4.8125 L 1.234375 -4.8125 Z M 1.234375 -2.96875 "/></g></g></g><g clip-path="url(#ce00a52a90)"><path fill="#0652e9" d="M 79.867188 46.113281 L 79.867188 51.078125 L 57.378906 40.632812 L 57.378906 36.601562 L 79.867188 26.15625 L 79.867188 31.121094 L 62.859375 38.570312 L 62.859375 38.664062 Z M 93.222656 20.636719 L 55.613281 20.636719 C 53.839844 20.636719 52.398438 22.078125 52.398438 23.851562 L 52.398438 53.382812 C 52.398438 55.15625 53.839844 56.597656 55.613281 56.597656 L 82.78125 56.597656 L 93.222656 20.636719 " fill-opacity="1" fill-rule="nonzero"/></g></svg>