<svg xmlns="http://www.w3.org/2000/svg" xmlns:xlink="http://www.w3.org/1999/xlink" width="250" zoomAndPan="magnify" viewBox="0 0 187.5 93.749996" height="125" preserveAspectRatio="xMidYMid meet" version="1.0"><defs><g/><clipPath id="4c1a6a8ca8"><path d="M 93.5 21 L 94 21 L 94 39.234375 L 93.5 39.234375 Z M 93.5 21 " clip-rule="nonzero"/></clipPath><clipPath id="6939c18c59"><path d="M 93.5 2.582031 L 133.894531 2.582031 L 133.894531 39 L 93.5 39 Z M 93.5 2.582031 " clip-rule="nonzero"/></clipPath><clipPath id="45176e5578"><path d="M 52.605469 21 L 93.746094 21 L 93.746094 56.835938 L 52.605469 56.835938 Z M 52.605469 21 " clip-rule="nonzero"/></clipPath><clipPath id="68aea1f5fc"><path d="M 93 20.796875 L 93.746094 20.796875 L 93.746094 39 L 93 39 Z M 93 20.796875 " clip-rule="nonzero"/></clipPath></defs><g clip-path="url(#4c1a6a8ca8)"><path fill="#0652e9" d="M 80.019531 46.980469 L 80.019531 51.953125 L 57.503906 41.492188 L 57.503906 37.460938 L 80.019531 27 L 80.019531 31.972656 L 62.992188 39.429688 L 62.992188 39.523438 Z M 93.390625 21.476562 L 55.738281 21.476562 C 53.960938 21.476562 52.519531 22.917969 52.519531 24.695312 L 52.519531 54.257812 C 52.519531 56.035156 53.960938 57.476562 55.738281 57.476562 L 82.9375 57.476562 L 93.390625 21.476562 " fill-opacity="1" fill-rule="nonzero"/></g><g clip-path="url(#6939c18c59)"><path fill="#0f1120" d="M 129.210938 22.753906 L 106.699219 33.074219 L 106.699219 28.101562 L 124.101562 20.644531 L 124.101562 20.550781 L 106.699219 13.089844 L 106.699219 8.121094 L 129.210938 18.4375 Z M 103.839844 2.597656 L 93.390625 38.597656 L 130.976562 38.597656 C 132.753906 38.597656 134.195312 37.15625 134.195312 35.378906 L 134.195312 5.816406 C 134.195312 4.039062 132.753906 2.597656 130.976562 2.597656 L 103.839844 2.597656 " fill-opacity="1" fill-rule="nonzero"/></g><g fill="#000000" fill-opacity="1"><g transform="translate(28.92479, 76.965342)"><g><path d="M 14.609375 -12.578125 L 17.515625 -12.578125 L 14.078125 0 L 10.890625 0 L 8.609375 -8.84375 L 6.328125 0 L 3.140625 0 L -0.296875 -12.578125 L 2.625 -12.578125 L 4.890625 -3.8125 L 7.265625 -12.578125 L 9.953125 -12.578125 L 12.359375 -3.859375 Z M 14.609375 -12.578125 "/></g></g></g><g fill="#000000" fill-opacity="1"><g transform="translate(46.890515, 76.965342)"><g><path d="M 8.90625 -10.140625 L 4.109375 -10.140625 L 4.109375 -7.5 L 8.21875 -7.5 L 8.21875 -5.078125 L 4.109375 -5.078125 L 4.109375 -2.4375 L 8.90625 -2.4375 L 8.90625 0 L 1.34375 0 L 1.34375 -12.578125 L 8.90625 -12.578125 Z M 8.90625 -10.140625 "/></g></g></g><g fill="#000000" fill-opacity="1"><g transform="translate(57.39502, 76.965342)"><g><path d="M 10.265625 -12.578125 L 13.015625 -12.578125 L 13.015625 0 L 10.171875 0 L 4 -8.34375 L 4 0 L 1.234375 0 L 1.234375 -12.578125 L 4.09375 -12.578125 L 10.265625 -4.25 Z M 10.265625 -12.578125 "/></g></g></g><g fill="#000000" fill-opacity="1"><g transform="translate(72.405597, 76.965342)"><g><path d="M 1.234375 0 L 1.234375 -12.578125 L 5.390625 -12.578125 C 6.253906 -12.578125 7.066406 -12.410156 7.828125 -12.078125 C 8.585938 -11.753906 9.253906 -11.304688 9.828125 -10.734375 C 10.398438 -10.160156 10.847656 -9.492188 11.171875 -8.734375 C 11.503906 -7.972656 11.671875 -7.15625 11.671875 -6.28125 C 11.671875 -5.414062 11.503906 -4.601562 11.171875 -3.84375 C 10.847656 -3.082031 10.398438 -2.414062 9.828125 -1.84375 C 9.253906 -1.269531 8.585938 -0.816406 7.828125 -0.484375 C 7.066406 -0.160156 6.253906 0 5.390625 0 Z M 4 -2.453125 L 5.359375 -2.453125 C 6.035156 -2.453125 6.640625 -2.617188 7.171875 -2.953125 C 7.703125 -3.285156 8.125 -3.742188 8.4375 -4.328125 C 8.75 -4.910156 8.90625 -5.5625 8.90625 -6.28125 C 8.90625 -7.007812 8.75 -7.660156 8.4375 -8.234375 C 8.125 -8.816406 7.703125 -9.273438 7.171875 -9.609375 C 6.640625 -9.953125 6.035156 -10.125 5.359375 -10.125 L 4 -10.125 Z M 4 -2.453125 "/></g></g></g><g fill="#000000" fill-opacity="1"><g transform="translate(85.592791, 76.965342)"><g><path d="M 4 -2.453125 L 8.171875 -2.453125 L 8.171875 0 L 1.234375 0 L 1.234375 -12.578125 L 4 -12.578125 Z M 4 -2.453125 "/></g></g></g><g fill="#000000" fill-opacity="1"><g transform="translate(94.546364, 76.965342)"><g><path d="M 8.90625 -10.140625 L 4.109375 -10.140625 L 4.109375 -7.5 L 8.21875 -7.5 L 8.21875 -5.078125 L 4.109375 -5.078125 L 4.109375 -2.4375 L 8.90625 -2.4375 L 8.90625 0 L 1.34375 0 L 1.34375 -12.578125 L 8.90625 -12.578125 Z M 8.90625 -10.140625 "/></g></g></g><g fill="#000000" fill-opacity="1"><g transform="translate(105.050871, 76.965342)"><g><path d="M 7.796875 -5.171875 L 11.3125 0 L 8.21875 0 L 5.109375 -4.859375 L 4 -4.859375 L 4 0 L 1.234375 0 L 1.234375 -12.578125 L 6.578125 -12.578125 C 7.304688 -12.578125 7.945312 -12.40625 8.5 -12.0625 C 9.0625 -11.71875 9.503906 -11.25 9.828125 -10.65625 C 10.160156 -10.070312 10.328125 -9.425781 10.328125 -8.71875 C 10.328125 -7.863281 10.085938 -7.113281 9.609375 -6.46875 C 9.140625 -5.832031 8.535156 -5.398438 7.796875 -5.171875 Z M 6.15625 -7.140625 C 6.601562 -7.140625 6.96875 -7.28125 7.25 -7.5625 C 7.539062 -7.84375 7.6875 -8.203125 7.6875 -8.640625 C 7.6875 -9.066406 7.539062 -9.421875 7.25 -9.703125 C 6.96875 -9.984375 6.601562 -10.125 6.15625 -10.125 L 4 -10.125 L 4 -7.140625 Z M 6.15625 -7.140625 "/></g></g></g><g fill="#000000" fill-opacity="1"><g transform="translate(122.769395, 76.965342)"><g><path d="M 1.234375 0 L 1.234375 -12.578125 L 5.390625 -12.578125 C 6.253906 -12.578125 7.066406 -12.410156 7.828125 -12.078125 C 8.585938 -11.753906 9.253906 -11.304688 9.828125 -10.734375 C 10.398438 -10.160156 10.847656 -9.492188 11.171875 -8.734375 C 11.503906 -7.972656 11.671875 -7.15625 11.671875 -6.28125 C 11.671875 -5.414062 11.503906 -4.601562 11.171875 -3.84375 C 10.847656 -3.082031 10.398438 -2.414062 9.828125 -1.84375 C 9.253906 -1.269531 8.585938 -0.816406 7.828125 -0.484375 C 7.066406 -0.160156 6.253906 0 5.390625 0 Z M 4 -2.453125 L 5.359375 -2.453125 C 6.035156 -2.453125 6.640625 -2.617188 7.171875 -2.953125 C 7.703125 -3.285156 8.125 -3.742188 8.4375 -4.328125 C 8.75 -4.910156 8.90625 -5.5625 8.90625 -6.28125 C 8.90625 -7.007812 8.75 -7.660156 8.4375 -8.234375 C 8.125 -8.816406 7.703125 -9.273438 7.171875 -9.609375 C 6.640625 -9.953125 6.035156 -10.125 5.359375 -10.125 L 4 -10.125 Z M 4 -2.453125 "/></g></g></g><g fill="#000000" fill-opacity="1"><g transform="translate(135.956588, 76.965342)"><g><path d="M 8.90625 -10.140625 L 4.109375 -10.140625 L 4.109375 -7.5 L 8.21875 -7.5 L 8.21875 -5.078125 L 4.109375 -5.078125 L 4.109375 -2.4375 L 8.90625 -2.4375 L 8.90625 0 L 1.34375 0 L 1.34375 -12.578125 L 8.90625 -12.578125 Z M 8.90625 -10.140625 "/></g></g></g><g fill="#000000" fill-opacity="1"><g transform="translate(146.461095, 76.965342)"><g><path d="M 8.796875 -12.578125 L 11.875 -12.578125 L 7.359375 0 L 4.25 0 L -0.265625 -12.578125 L 2.8125 -12.578125 L 5.8125 -3.578125 Z M 8.796875 -12.578125 "/></g></g></g><g fill="#000000" fill-opacity="1"><g transform="translate(32.333447, 88.943272)"><g><path d="M 2.015625 0.078125 C 1.609375 0.078125 1.25 -0.0195312 0.9375 -0.21875 C 0.625 -0.425781 0.398438 -0.695312 0.265625 -1.03125 L 0.78125 -1.328125 C 0.875 -1.085938 1.023438 -0.890625 1.234375 -0.734375 C 1.453125 -0.578125 1.710938 -0.5 2.015625 -0.5 C 2.316406 -0.5 2.570312 -0.578125 2.78125 -0.734375 C 2.988281 -0.890625 3.09375 -1.113281 3.09375 -1.40625 C 3.09375 -1.625 3.03125 -1.800781 2.90625 -1.9375 C 2.78125 -2.082031 2.617188 -2.203125 2.421875 -2.296875 C 2.222656 -2.390625 2.007812 -2.476562 1.78125 -2.5625 C 1.5625 -2.65625 1.351562 -2.757812 1.15625 -2.875 C 0.957031 -3 0.789062 -3.148438 0.65625 -3.328125 C 0.53125 -3.515625 0.46875 -3.753906 0.46875 -4.046875 C 0.46875 -4.335938 0.535156 -4.585938 0.671875 -4.796875 C 0.804688 -5.015625 0.988281 -5.179688 1.21875 -5.296875 C 1.445312 -5.410156 1.695312 -5.46875 1.96875 -5.46875 C 2.28125 -5.46875 2.5625 -5.398438 2.8125 -5.265625 C 3.0625 -5.140625 3.257812 -4.976562 3.40625 -4.78125 L 2.96875 -4.40625 C 2.738281 -4.726562 2.414062 -4.890625 2 -4.890625 C 1.738281 -4.890625 1.515625 -4.820312 1.328125 -4.6875 C 1.140625 -4.550781 1.046875 -4.351562 1.046875 -4.09375 C 1.046875 -3.875 1.109375 -3.695312 1.234375 -3.5625 C 1.359375 -3.4375 1.519531 -3.328125 1.71875 -3.234375 C 1.925781 -3.140625 2.140625 -3.046875 2.359375 -2.953125 C 2.578125 -2.867188 2.785156 -2.765625 2.984375 -2.640625 C 3.191406 -2.523438 3.359375 -2.367188 3.484375 -2.171875 C 3.609375 -1.972656 3.671875 -1.722656 3.671875 -1.421875 C 3.671875 -1.109375 3.59375 -0.835938 3.4375 -0.609375 C 3.289062 -0.390625 3.09375 -0.21875 2.84375 -0.09375 C 2.59375 0.0195312 2.316406 0.078125 2.015625 0.078125 Z M 2.015625 0.078125 "/></g></g></g><g fill="#000000" fill-opacity="1"><g transform="translate(38.675809, 88.943272)"><g><path d="M 3.203125 0.078125 C 2.816406 0.078125 2.457031 0.00390625 2.125 -0.140625 C 1.800781 -0.285156 1.507812 -0.484375 1.25 -0.734375 C 1 -0.992188 0.800781 -1.289062 0.65625 -1.625 C 0.507812 -1.957031 0.4375 -2.3125 0.4375 -2.6875 C 0.4375 -3.070312 0.507812 -3.429688 0.65625 -3.765625 C 0.800781 -4.097656 1 -4.390625 1.25 -4.640625 C 1.507812 -4.898438 1.800781 -5.101562 2.125 -5.25 C 2.457031 -5.394531 2.816406 -5.46875 3.203125 -5.46875 C 3.585938 -5.46875 3.945312 -5.394531 4.28125 -5.25 C 4.613281 -5.101562 4.90625 -4.898438 5.15625 -4.640625 C 5.414062 -4.390625 5.613281 -4.097656 5.75 -3.765625 C 5.894531 -3.429688 5.96875 -3.070312 5.96875 -2.6875 C 5.96875 -2.3125 5.894531 -1.957031 5.75 -1.625 C 5.613281 -1.289062 5.414062 -0.992188 5.15625 -0.734375 C 4.90625 -0.484375 4.613281 -0.285156 4.28125 -0.140625 C 3.945312 0.00390625 3.585938 0.078125 3.203125 0.078125 Z M 3.203125 -0.5 C 3.609375 -0.5 3.976562 -0.597656 4.3125 -0.796875 C 4.644531 -0.992188 4.910156 -1.253906 5.109375 -1.578125 C 5.304688 -1.910156 5.40625 -2.28125 5.40625 -2.6875 C 5.40625 -3.101562 5.304688 -3.472656 5.109375 -3.796875 C 4.910156 -4.128906 4.644531 -4.394531 4.3125 -4.59375 C 3.976562 -4.789062 3.609375 -4.890625 3.203125 -4.890625 C 2.804688 -4.890625 2.441406 -4.789062 2.109375 -4.59375 C 1.773438 -4.394531 1.507812 -4.128906 1.3125 -3.796875 C 1.113281 -3.472656 1.015625 -3.101562 1.015625 -2.6875 C 1.015625 -2.28125 1.113281 -1.910156 1.3125 -1.578125 C 1.507812 -1.253906 1.773438 -0.992188 2.109375 -0.796875 C 2.441406 -0.597656 2.804688 -0.5 3.203125 -0.5 Z M 3.203125 -0.5 "/></g></g></g><g fill="#000000" fill-opacity="1"><g transform="translate(47.506587, 88.943272)"><g><path d="M 3.640625 -4.828125 L 1.28125 -4.828125 L 1.28125 -2.96875 L 3.34375 -2.96875 L 3.34375 -2.421875 L 1.28125 -2.421875 L 1.28125 0 L 0.703125 0 L 0.703125 -5.390625 L 3.640625 -5.390625 Z M 3.640625 -4.828125 "/></g></g></g><g fill="#000000" fill-opacity="1"><g transform="translate(53.723181, 88.943272)"><g><path d="M 3.640625 -5.390625 L 3.640625 -4.8125 L 2.140625 -4.8125 L 2.140625 0 L 1.578125 0 L 1.578125 -4.8125 L 0.078125 -4.8125 L 0.078125 -5.390625 Z M 3.640625 -5.390625 "/></g></g></g><g fill="#000000" fill-opacity="1"><g transform="translate(59.849943, 88.943272)"><g><path d="M 6.734375 -5.390625 L 7.328125 -5.390625 L 5.640625 0 L 5.046875 0 L 3.625 -4.78125 L 2.25 0 L 1.640625 0 L -0.046875 -5.390625 L 0.5625 -5.390625 L 1.9375 -0.96875 L 3.21875 -5.390625 L 4.03125 -5.390625 L 5.34375 -0.96875 Z M 6.734375 -5.390625 "/></g></g></g><g fill="#000000" fill-opacity="1"><g transform="translate(69.52516, 88.943272)"><g><path d="M 3.90625 0 L 3.46875 -1.25 L 1.0625 -1.25 L 0.625 0 L 0 0 L 1.953125 -5.390625 L 2.59375 -5.390625 L 4.53125 0 Z M 1.25 -1.8125 L 3.28125 -1.8125 L 2.265625 -4.703125 Z M 1.25 -1.8125 "/></g></g></g><g fill="#000000" fill-opacity="1"><g transform="translate(76.469413, 88.943272)"><g><path d="M 2.84375 -2.46875 L 4.421875 0 L 3.765625 0 L 2.25 -2.4375 L 1.234375 -2.4375 L 1.234375 0 L 0.65625 0 L 0.65625 -5.390625 L 2.59375 -5.390625 C 2.863281 -5.390625 3.113281 -5.320312 3.34375 -5.1875 C 3.570312 -5.050781 3.753906 -4.867188 3.890625 -4.640625 C 4.023438 -4.410156 4.09375 -4.15625 4.09375 -3.875 C 4.09375 -3.632812 4.035156 -3.410156 3.921875 -3.203125 C 3.804688 -3.003906 3.65625 -2.835938 3.46875 -2.703125 C 3.289062 -2.578125 3.082031 -2.5 2.84375 -2.46875 Z M 1.234375 -2.984375 L 2.546875 -2.984375 C 2.828125 -2.984375 3.054688 -3.066406 3.234375 -3.234375 C 3.421875 -3.398438 3.515625 -3.625 3.515625 -3.90625 C 3.515625 -4.164062 3.421875 -4.378906 3.234375 -4.546875 C 3.046875 -4.722656 2.816406 -4.8125 2.546875 -4.8125 L 1.234375 -4.8125 Z M 1.234375 -2.984375 "/></g></g></g><g fill="#000000" fill-opacity="1"><g transform="translate(83.386716, 88.943272)"><g><path d="M 3.640625 -4.828125 L 1.28125 -4.828125 L 1.28125 -2.96875 L 3.34375 -2.96875 L 3.34375 -2.421875 L 1.28125 -2.421875 L 1.28125 -0.5625 L 3.640625 -0.5625 L 3.640625 0 L 0.703125 0 L 0.703125 -5.390625 L 3.640625 -5.390625 Z M 3.640625 -4.828125 "/></g></g></g><g fill="#000000" fill-opacity="1"><g transform="translate(89.980614, 88.943272)"><g/></g></g><g fill="#000000" fill-opacity="1"><g transform="translate(94.553232, 88.943272)"><g><path d="M 0.65625 0 L 0.65625 -5.390625 L 2.125 -5.390625 C 2.5 -5.390625 2.847656 -5.316406 3.171875 -5.171875 C 3.503906 -5.035156 3.789062 -4.84375 4.03125 -4.59375 C 4.28125 -4.351562 4.472656 -4.066406 4.609375 -3.734375 C 4.753906 -3.410156 4.828125 -3.0625 4.828125 -2.6875 C 4.828125 -2.320312 4.753906 -1.972656 4.609375 -1.640625 C 4.472656 -1.316406 4.28125 -1.03125 4.03125 -0.78125 C 3.789062 -0.539062 3.503906 -0.347656 3.171875 -0.203125 C 2.847656 -0.0664062 2.5 0 2.125 0 Z M 1.21875 -0.578125 L 2.125 -0.578125 C 2.519531 -0.578125 2.878906 -0.664062 3.203125 -0.84375 C 3.523438 -1.03125 3.78125 -1.285156 3.96875 -1.609375 C 4.15625 -1.929688 4.25 -2.289062 4.25 -2.6875 C 4.25 -3.101562 4.15625 -3.46875 3.96875 -3.78125 C 3.78125 -4.101562 3.523438 -4.351562 3.203125 -4.53125 C 2.878906 -4.71875 2.519531 -4.8125 2.125 -4.8125 L 1.21875 -4.8125 Z M 1.21875 -0.578125 "/></g></g></g><g fill="#000000" fill-opacity="1"><g transform="translate(102.225138, 88.943272)"><g><path d="M 3.640625 -4.828125 L 1.28125 -4.828125 L 1.28125 -2.96875 L 3.34375 -2.96875 L 3.34375 -2.421875 L 1.28125 -2.421875 L 1.28125 -0.5625 L 3.640625 -0.5625 L 3.640625 0 L 0.703125 0 L 0.703125 -5.390625 L 3.640625 -5.390625 Z M 3.640625 -4.828125 "/></g></g></g><g fill="#000000" fill-opacity="1"><g transform="translate(108.819033, 88.943272)"><g><path d="M 3.90625 -5.390625 L 4.53125 -5.390625 L 2.59375 0 L 1.953125 0 L 0 -5.390625 L 0.640625 -5.390625 L 2.265625 -0.734375 Z M 3.90625 -5.390625 "/></g></g></g><g fill="#000000" fill-opacity="1"><g transform="translate(115.763282, 88.943272)"><g><path d="M 3.640625 -4.828125 L 1.28125 -4.828125 L 1.28125 -2.96875 L 3.34375 -2.96875 L 3.34375 -2.421875 L 1.28125 -2.421875 L 1.28125 -0.5625 L 3.640625 -0.5625 L 3.640625 0 L 0.703125 0 L 0.703125 -5.390625 L 3.640625 -5.390625 Z M 3.640625 -4.828125 "/></g></g></g><g fill="#000000" fill-opacity="1"><g transform="translate(122.357177, 88.943272)"><g><path d="M 1.234375 -0.578125 L 3.234375 -0.578125 L 3.234375 0 L 0.65625 0 L 0.65625 -5.390625 L 1.234375 -5.390625 Z M 1.234375 -0.578125 "/></g></g></g><g fill="#000000" fill-opacity="1"><g transform="translate(128.079676, 88.943272)"><g><path d="M 3.203125 0.078125 C 2.816406 0.078125 2.457031 0.00390625 2.125 -0.140625 C 1.800781 -0.285156 1.507812 -0.484375 1.25 -0.734375 C 1 -0.992188 0.800781 -1.289062 0.65625 -1.625 C 0.507812 -1.957031 0.4375 -2.3125 0.4375 -2.6875 C 0.4375 -3.070312 0.507812 -3.429688 0.65625 -3.765625 C 0.800781 -4.097656 1 -4.390625 1.25 -4.640625 C 1.507812 -4.898438 1.800781 -5.101562 2.125 -5.25 C 2.457031 -5.394531 2.816406 -5.46875 3.203125 -5.46875 C 3.585938 -5.46875 3.945312 -5.394531 4.28125 -5.25 C 4.613281 -5.101562 4.90625 -4.898438 5.15625 -4.640625 C 5.414062 -4.390625 5.613281 -4.097656 5.75 -3.765625 C 5.894531 -3.429688 5.96875 -3.070312 5.96875 -2.6875 C 5.96875 -2.3125 5.894531 -1.957031 5.75 -1.625 C 5.613281 -1.289062 5.414062 -0.992188 5.15625 -0.734375 C 4.90625 -0.484375 4.613281 -0.285156 4.28125 -0.140625 C 3.945312 0.00390625 3.585938 0.078125 3.203125 0.078125 Z M 3.203125 -0.5 C 3.609375 -0.5 3.976562 -0.597656 4.3125 -0.796875 C 4.644531 -0.992188 4.910156 -1.253906 5.109375 -1.578125 C 5.304688 -1.910156 5.40625 -2.28125 5.40625 -2.6875 C 5.40625 -3.101562 5.304688 -3.472656 5.109375 -3.796875 C 4.910156 -4.128906 4.644531 -4.394531 4.3125 -4.59375 C 3.976562 -4.789062 3.609375 -4.890625 3.203125 -4.890625 C 2.804688 -4.890625 2.441406 -4.789062 2.109375 -4.59375 C 1.773438 -4.394531 1.507812 -4.128906 1.3125 -3.796875 C 1.113281 -3.472656 1.015625 -3.101562 1.015625 -2.6875 C 1.015625 -2.28125 1.113281 -1.910156 1.3125 -1.578125 C 1.507812 -1.253906 1.773438 -0.992188 2.109375 -0.796875 C 2.441406 -0.597656 2.804688 -0.5 3.203125 -0.5 Z M 3.203125 -0.5 "/></g></g></g><g fill="#000000" fill-opacity="1"><g transform="translate(136.910456, 88.943272)"><g><path d="M 2.59375 -5.390625 C 2.875 -5.390625 3.125 -5.320312 3.34375 -5.1875 C 3.570312 -5.050781 3.753906 -4.867188 3.890625 -4.640625 C 4.023438 -4.410156 4.09375 -4.160156 4.09375 -3.890625 C 4.09375 -3.617188 4.023438 -3.367188 3.890625 -3.140625 C 3.753906 -2.910156 3.570312 -2.726562 3.34375 -2.59375 C 3.125 -2.46875 2.875 -2.40625 2.59375 -2.40625 L 1.234375 -2.40625 L 1.234375 0 L 0.65625 0 L 0.65625 -5.390625 Z M 2.53125 -2.953125 C 2.800781 -2.953125 3.03125 -3.03125 3.21875 -3.1875 C 3.414062 -3.351562 3.515625 -3.582031 3.515625 -3.875 C 3.515625 -4.164062 3.414062 -4.394531 3.21875 -4.5625 C 3.03125 -4.738281 2.800781 -4.828125 2.53125 -4.828125 L 1.234375 -4.828125 L 1.234375 -2.953125 Z M 2.53125 -2.953125 "/></g></g></g><g fill="#000000" fill-opacity="1"><g transform="translate(143.55825, 88.943272)"><g><path d="M 3.640625 -4.828125 L 1.28125 -4.828125 L 1.28125 -2.96875 L 3.34375 -2.96875 L 3.34375 -2.421875 L 1.28125 -2.421875 L 1.28125 -0.5625 L 3.640625 -0.5625 L 3.640625 0 L 0.703125 0 L 0.703125 -5.390625 L 3.640625 -5.390625 Z M 3.640625 -4.828125 "/></g></g></g><g fill="#000000" fill-opacity="1"><g transform="translate(150.152145, 88.943272)"><g><path d="M 2.84375 -2.46875 L 4.421875 0 L 3.765625 0 L 2.25 -2.4375 L 1.234375 -2.4375 L 1.234375 0 L 0.65625 0 L 0.65625 -5.390625 L 2.59375 -5.390625 C 2.863281 -5.390625 3.113281 -5.320312 3.34375 -5.1875 C 3.570312 -5.050781 3.753906 -4.867188 3.890625 -4.640625 C 4.023438 -4.410156 4.09375 -4.15625 4.09375 -3.875 C 4.09375 -3.632812 4.035156 -3.410156 3.921875 -3.203125 C 3.804688 -3.003906 3.65625 -2.835938 3.46875 -2.703125 C 3.289062 -2.578125 3.082031 -2.5 2.84375 -2.46875 Z M 1.234375 -2.984375 L 2.546875 -2.984375 C 2.828125 -2.984375 3.054688 -3.066406 3.234375 -3.234375 C 3.421875 -3.398438 3.515625 -3.625 3.515625 -3.90625 C 3.515625 -4.164062 3.421875 -4.378906 3.234375 -4.546875 C 3.046875 -4.722656 2.816406 -4.8125 2.546875 -4.8125 L 1.234375 -4.8125 Z M 1.234375 -2.984375 "/></g></g></g><g clip-path="url(#45176e5578)"><path fill="#0652e9" d="M 80.109375 46.632812 L 80.109375 51.601562 L 57.59375 41.144531 L 57.59375 37.109375 L 80.109375 26.648438 L 80.109375 31.621094 L 63.082031 39.078125 L 63.082031 39.171875 Z M 93.480469 21.125 L 55.828125 21.125 C 54.050781 21.125 52.609375 22.566406 52.609375 24.34375 L 52.609375 53.910156 C 52.609375 55.6875 54.050781 57.125 55.828125 57.125 L 83.027344 57.125 L 93.480469 21.125 " fill-opacity="1" fill-rule="nonzero"/></g><g clip-path="url(#68aea1f5fc)"><path fill="#0f1120" d="M 129.300781 22.40625 L 106.789062 32.722656 L 106.789062 27.75 L 124.191406 20.292969 L 124.191406 20.199219 L 106.789062 12.742188 L 106.789062 7.769531 L 129.300781 18.089844 Z M 103.929688 2.246094 L 93.480469 38.246094 L 131.066406 38.246094 C 132.84375 38.246094 134.285156 36.804688 134.285156 35.027344 L 134.285156 5.464844 C 134.285156 3.6875 132.84375 2.246094 131.066406 2.246094 L 103.929688 2.246094 " fill-opacity="1" fill-rule="nonzero"/></g></svg>